<svg version="1.1" viewBox="0.0 0.0 960.0 540.0" fill="none" stroke="none" stroke-linecap="square" stroke-miterlimit="10" xmlns:xlink="http://www.w3.org/1999/xlink" xmlns="http://www.w3.org/2000/svg"><clipPath id="g3973a57c63_0_68.0"><path d="m0 0l960.0 0l0 540.0l-960.0 0l0 -540.0z" clip-rule="nonzero"/></clipPath><g clip-path="url(#g3973a57c63_0_68.0)"><path fill="#000000" fill-opacity="0.0" d="m0 0l960.0 0l0 540.0l-960.0 0z" fill-rule="evenodd"/><g filter="url(#shadowFilter-g3973a57c63_0_68.1)"><use xlink:href="#g3973a57c63_0_68.1" transform="matrix(1.0 0.0 0.0 1.0 0.0 2.0)"/></g><defs><filter id="shadowFilter-g3973a57c63_0_68.1" filterUnits="userSpaceOnUse"><feGaussianBlur in="SourceAlpha" stdDeviation="2.0" result="blur"/><feComponentTransfer in="blur" color-interpolation-filters="sRGB"><feFuncR type="linear" slope="0" intercept="0.4"/><feFuncG type="linear" slope="0" intercept="0.4"/><feFuncB type="linear" slope="0" intercept="0.4"/><feFuncA type="linear" slope="0.5" intercept="0"/></feComponentTransfer></filter></defs><g id="g3973a57c63_0_68.1"><path fill="#efefef" d="m24.102362 72.36795l0 0c0 -1.1135254 0.902689 -2.0162125 2.0162125 -2.0162125l903.1172 0c0.534729 0 1.0475464 0.2124176 1.4256592 0.5905304c0.3781128 0.3781128 0.59051514 0.89094543 0.59051514 1.4256821l0 186.8967c0 1.1135254 -0.9026489 2.0162354 -2.0161743 2.0162354l-903.1172 0c-1.1135235 0 -2.0162125 -0.90270996 -2.0162125 -2.0162354z" fill-rule="evenodd"/><path fill="#434343" d="m408.76312 104.69352q0 -1.390625 -0.71875 -2.09375q-0.703125 -0.71875 -2.578125 -1.484375q-3.421875 -1.296875 -4.921875 -3.03125q-1.5 -1.75 -1.5 -4.125q0 -2.875 2.03125 -4.609375q2.046875 -1.75 5.1875 -1.75q2.09375 0 3.734375 0.890625q1.640625 0.875 2.515625 2.484375q0.890625 1.609375 0.890625 3.65625l-4.578125 0q0 -1.59375 -0.6875 -2.421875q-0.671875 -0.84375 -1.953125 -0.84375q-1.203125 0 -1.875 0.71875q-0.671875 0.703125 -0.671875 1.90625q0 0.9375 0.75 1.703125q0.75 0.75 2.65625 1.5625q3.328125 1.203125 4.828125 2.953125q1.515625 1.75 1.515625 4.453125q0 2.96875 -1.890625 4.640625q-1.890625 1.671875 -5.140625 1.671875q-2.203125 0 -4.015625 -0.90625q-1.8125 -0.90625 -2.84375 -2.59375q-1.015625 -1.6875 -1.015625 -3.984375l4.609375 0q0 1.96875 0.765625 2.859375q0.765625 0.890625 2.5 0.890625q2.40625 0 2.40625 -2.546875zm15.484375 5.96875q-0.1875 -0.390625 -0.375 -1.3125q-1.1875 1.625 -3.21875 1.625q-2.125 0 -3.53125 -1.40625q-1.390625 -1.40625 -1.390625 -3.640625q0 -2.65625 1.6875 -4.109375q1.703125 -1.453125 4.890625 -1.484375l1.34375 0l0 -1.359375q0 -1.140625 -0.390625 -1.609375q-0.390625 -0.46875 -1.140625 -0.46875q-1.65625 0 -1.65625 1.9375l-4.421875 0q0 -2.34375 1.75 -3.859375q1.765625 -1.53125 4.453125 -1.53125q2.78125 0 4.296875 1.453125q1.53125 1.4375 1.53125 4.125l0 7.953125q0.03125 2.1875 0.625 3.421875l0 0.265625l-4.453125 0zm-2.609375 -3.15625q0.734375 0 1.25 -0.296875q0.515625 -0.296875 0.765625 -0.703125l0 -3.515625l-1.0625 0q-1.125 0 -1.78125 0.71875q-0.640625 0.71875 -0.640625 1.921875q0 1.875 1.46875 1.875zm13.796875 -13.75l0.125 1.5625q1.484375 -1.875 3.921875 -1.875q2.53125 0 3.578125 2.28125q1.453125 -2.28125 4.140625 -2.28125q4.4375 0 4.546875 6.140625l0 11.078125l-4.421875 0l0 -10.796875q0 -1.46875 -0.40625 -2.09375q-0.40625 -0.625 -1.375 -0.625q-1.234375 0 -1.84375 1.515625l0.03125 0.53125l0 11.46875l-4.421875 0l0 -10.765625q0 -1.453125 -0.390625 -2.09375q-0.390625 -0.65625 -1.390625 -0.65625q-1.140625 0 -1.8125 1.234375l0 12.28125l-4.421875 0l0 -16.90625l4.140625 0zm32.75 8.984375q0 3.984375 -1.375 6.109375q-1.359375 2.125 -4.0625 2.125q-2.0625 0 -3.3125 -1.671875l0 7.859375l-4.421875 0l0 -23.40625l4.09375 0l0.15625 1.546875q1.265625 -1.859375 3.453125 -1.859375q2.703125 0 4.0625 1.96875q1.375 1.96875 1.40625 6.03125l0 1.296875zm-4.40625 -1.109375q0 -2.453125 -0.546875 -3.46875q-0.53125 -1.015625 -1.8125 -1.015625q-1.359375 0 -1.984375 1.140625l0 7.921875q0.59375 1.09375 2.015625 1.09375q1.3125 0 1.8125 -1.109375q0.515625 -1.109375 0.515625 -3.453125l0 -1.109375zm11.71875 9.03125l-4.4375 0l0 -24.0l4.4375 0l0 24.0zm10.25 0.3125q-3.40625 0 -5.3125 -2.03125q-1.90625 -2.03125 -1.90625 -5.8125l0 -1.34375q0 -4.0 1.75 -6.171875q1.75 -2.171875 5.015625 -2.171875q3.1875 0 4.796875 2.046875q1.609375 2.03125 1.640625 6.03125l0 2.171875l-8.796875 0q0.09375 1.875 0.828125 2.75q0.734375 0.859375 2.265625 0.859375q2.21875 0 3.703125 -1.515625l1.734375 2.671875q-0.8125 1.125 -2.359375 1.828125q-1.546875 0.6875 -3.359375 0.6875zm-2.78125 -10.375l4.421875 0l0 -0.40625q-0.03125 -1.515625 -0.5 -2.296875q-0.46875 -0.78125 -1.625 -0.78125q-1.15625 0 -1.6875 0.828125q-0.515625 0.828125 -0.609375 2.65625zm18.859375 10.0625l0 -22.75l6.015625 0q3.984375 0 6.34375 2.53125q2.375 2.53125 2.421875 6.9375l0 3.6875q0 4.484375 -2.375 7.046875q-2.359375 2.546875 -6.515625 2.546875l-5.890625 0zm4.59375 -18.921875l0 15.109375l1.375 0q2.296875 0 3.234375 -1.203125q0.9375 -1.21875 0.984375 -4.1875l0 -3.953125q0 -3.1875 -0.890625 -4.4375q-0.890625 -1.265625 -3.03125 -1.328125l-1.671875 0zm21.296875 18.921875q-0.1875 -0.390625 -0.375 -1.3125q-1.1875 1.625 -3.21875 1.625q-2.125 0 -3.53125 -1.40625q-1.390625 -1.40625 -1.390625 -3.640625q0 -2.65625 1.6875 -4.109375q1.703125 -1.453125 4.890625 -1.484375l1.34375 0l0 -1.359375q0 -1.140625 -0.390625 -1.609375q-0.390625 -0.46875 -1.140625 -0.46875q-1.65625 0 -1.65625 1.9375l-4.421875 0q0 -2.34375 1.75 -3.859375q1.765625 -1.53125 4.453125 -1.53125q2.78125 0 4.296875 1.453125q1.53125 1.4375 1.53125 4.125l0 7.953125q0.03125 2.1875 0.625 3.421875l0 0.265625l-4.453125 0zm-2.609375 -3.15625q0.734375 0 1.25 -0.296875q0.515625 -0.296875 0.765625 -0.703125l0 -3.515625l-1.0625 0q-1.125 0 -1.78125 0.71875q-0.640625 0.71875 -0.640625 1.921875q0 1.875 1.46875 1.875zm14.781189 -17.90625l0 4.15625l2.265625 0l0 3.328125l-2.265625 0l0 8.390625q0 1.0 0.265625 1.375q0.28125 0.375 1.0625 0.375q0.640625 0 1.046875 -0.109375l-0.03125 3.4375q-1.125 0.421875 -2.4375 0.421875q-4.281189 0 -4.328064 -4.90625l0 -8.984375l-1.953125 0l0 -3.328125l1.953125 0l0 -4.15625l4.421814 0zm12.71875 21.0625q-0.1875 -0.390625 -0.375 -1.3125q-1.1875 1.625 -3.21875 1.625q-2.125 0 -3.53125 -1.40625q-1.390625 -1.40625 -1.390625 -3.640625q0 -2.65625 1.6875 -4.109375q1.703125 -1.453125 4.890625 -1.484375l1.34375 0l0 -1.359375q0 -1.140625 -0.390625 -1.609375q-0.390625 -0.46875 -1.140625 -0.46875q-1.65625 0 -1.65625 1.9375l-4.421875 0q0 -2.34375 1.75 -3.859375q1.765625 -1.53125 4.453125 -1.53125q2.78125 0 4.296875 1.453125q1.53125 1.4375 1.53125 4.125l0 7.953125q0.03125 2.1875 0.625 3.421875l0 0.265625l-4.453125 0zm-2.609375 -3.15625q0.734375 0 1.25 -0.296875q0.515625 -0.296875 0.765625 -0.703125l0 -3.515625l-1.0625 0q-1.125 0 -1.78125 0.71875q-0.640625 0.71875 -0.640625 1.921875q0 1.875 1.46875 1.875z" fill-rule="nonzero"/></g><g filter="url(#shadowFilter-g3973a57c63_0_68.2)"><use xlink:href="#g3973a57c63_0_68.2" transform="matrix(1.0 0.0 0.0 1.0 0.0 2.0)"/></g><defs><filter id="shadowFilter-g3973a57c63_0_68.2" filterUnits="userSpaceOnUse"><feGaussianBlur in="SourceAlpha" stdDeviation="2.0" result="blur"/><feComponentTransfer in="blur" color-interpolation-filters="sRGB"><feFuncR type="linear" slope="0" intercept="0.6"/><feFuncG type="linear" slope="0" intercept="0.6"/><feFuncB type="linear" slope="0" intercept="0.6"/><feFuncA type="linear" slope="0.5" intercept="0"/></feComponentTransfer></filter></defs><g id="g3973a57c63_0_68.2"><path fill="#6d9eeb" d="m313.85156 131.99976l0 0c0 -2.2307281 1.8083496 -4.039093 4.039093 -4.039093l313.9061 0c1.071228 0 2.0985718 0.42555237 2.856018 1.1830292c0.7575073 0.75746155 1.1830444 1.7848206 1.1830444 2.8560638l0 67.2919c0 2.2307281 -1.8083496 4.039093 -4.0390625 4.039093l-313.9061 0c-2.2307434 0 -4.039093 -1.8083649 -4.039093 -4.039093z" fill-rule="evenodd"/><path fill="#ffffff" d="m392.3594 156.3218l0 7.421875l-2.375 0l0 -18.953125l6.03125 0q2.640625 0 4.15625 1.59375q1.515625 1.578125 1.515625 4.203125q0 2.734375 -1.4375 4.21875q-1.4375 1.46875 -4.0625 1.515625l-3.828125 0zm0 -2.046875l3.65625 0q1.59375 0 2.4375 -0.9375q0.84375 -0.953125 0.84375 -2.734375q0 -1.703125 -0.875 -2.71875q-0.859375 -1.03125 -2.390625 -1.03125l-3.671875 0l0 7.421875zm17.882263 -2.453125q-0.484375 -0.09375 -1.03125 -0.09375q-1.78125 0 -2.484375 1.9375l0 10.078125l-2.296875 0l0 -14.078125l2.234375 0l0.046875 1.421875q0.921875 -1.6875 2.609375 -1.6875q0.546875 0 0.90625 0.1875l0.015625 2.234375zm7.327545 12.1875q-2.625 0 -4.03125 -1.5625q-1.40625 -1.578125 -1.4375 -4.609375l0 -1.703125q0 -3.15625 1.375 -4.9375q1.375 -1.796875 3.84375 -1.796875q2.46875 0 3.6875 1.578125q1.234375 1.578125 1.25 4.90625l0 1.5l-7.859375 0l0 0.328125q0 2.265625 0.84375 3.296875q0.859375 1.03125 2.46875 1.03125q1.015625 0 1.78125 -0.375q0.78125 -0.390625 1.453125 -1.234375l1.203125 1.46875q-1.5 2.109375 -4.578125 2.109375zm-0.25 -12.625q-1.4375 0 -2.125 0.984375q-0.6875 0.96875 -0.78125 3.046875l5.546875 0l0 -0.3125q-0.09375 -2.0 -0.734375 -2.859375q-0.625 -0.859375 -1.90625 -0.859375zm17.872742 6.0q0 3.34375 -1.203125 4.984375q-1.203125 1.640625 -3.40625 1.640625q-2.109375 0 -3.265625 -1.609375l0 6.765625l-2.28125 0l0 -19.5l2.078125 0l0.125 1.5625q1.15625 -1.828125 3.3125 -1.828125q2.3125 0 3.453125 1.625q1.15625 1.609375 1.1875 4.8125l0 1.546875zm-2.28125 -1.3125q0 -2.375 -0.734375 -3.5q-0.734375 -1.125 -2.34375 -1.125q-1.65625 0 -2.515625 1.65625l0 7.328125q0.859375 1.609375 2.546875 1.609375q1.5625 0 2.296875 -1.125q0.734375 -1.125 0.75 -3.453125l0 -1.390625zm11.06778 -4.25q-0.484375 -0.09375 -1.03125 -0.09375q-1.78125 0 -2.484375 1.9375l0 10.078125l-2.296875 0l0 -14.078125l2.234375 0l0.046875 1.421875q0.921875 -1.6875 2.609375 -1.6875q0.546875 0 0.90625 0.1875l0.015625 2.234375zm1.8119202 4.234375q0 -3.078125 1.484375 -4.859375q1.5 -1.796875 3.9375 -1.796875q2.453125 0 3.9375 1.75q1.5 1.734375 1.53125 4.75l0 1.484375q0 3.046875 -1.484375 4.84375q-1.484375 1.78125 -3.953125 1.78125q-2.4375 0 -3.921875 -1.734375q-1.484375 -1.734375 -1.53125 -4.6875l0 -1.53125zm2.3125 1.328125q0 2.171875 0.84375 3.421875q0.859375 1.234375 2.296875 1.234375q3.046875 0 3.140625 -4.40625l0 -1.578125q0 -2.171875 -0.859375 -3.421875q-0.859375 -1.25 -2.296875 -1.25q-1.421875 0 -2.28125 1.25q-0.84375 1.25 -0.84375 3.40625l0 1.34375zm16.442688 4.65625q1.140625 0 1.828125 -0.703125q0.703125 -0.71875 0.765625 -2.03125l2.171875 0q-0.078125 2.03125 -1.4375 3.375q-1.359375 1.328125 -3.328125 1.328125q-2.609375 0 -3.984375 -1.640625q-1.375 -1.65625 -1.375 -4.90625l0 -1.546875q0 -3.203125 1.359375 -4.859375q1.375 -1.65625 3.984375 -1.65625q2.171875 0 3.4375 1.375q1.265625 1.359375 1.34375 3.734375l-2.171875 0q-0.078125 -1.5625 -0.75 -2.34375q-0.671875 -0.78125 -1.859375 -0.78125q-1.53125 0 -2.28125 1.015625q-0.734375 1.0 -0.765625 3.296875l0 1.796875q0 2.484375 0.734375 3.515625q0.75 1.03125 2.328125 1.03125zm12.453522 1.96875q-2.625 0 -4.03125 -1.5625q-1.40625 -1.578125 -1.4375 -4.609375l0 -1.703125q0 -3.15625 1.375 -4.9375q1.375 -1.796875 3.84375 -1.796875q2.46875 0 3.6875 1.578125q1.234375 1.578125 1.25 4.90625l0 1.5l-7.859375 0l0 0.328125q0 2.265625 0.84375 3.296875q0.859375 1.03125 2.46875 1.03125q1.015625 0 1.78125 -0.375q0.78125 -0.390625 1.453125 -1.234375l1.203125 1.46875q-1.5 2.109375 -4.578125 2.109375zm-0.25 -12.625q-1.4375 0 -2.125 0.984375q-0.6875 0.96875 -0.78125 3.046875l5.546875 0l0 -0.3125q-0.09375 -2.0 -0.734375 -2.859375q-0.625 -0.859375 -1.90625 -0.859375zm14.544617 8.75q0 -0.734375 -0.5625 -1.265625q-0.5625 -0.546875 -2.15625 -1.25q-1.859375 -0.765625 -2.625 -1.3125q-0.765625 -0.546875 -1.140625 -1.25q-0.375 -0.703125 -0.375 -1.65625q0 -1.71875 1.25 -2.859375q1.265625 -1.140625 3.21875 -1.140625q2.046875 0 3.296875 1.203125q1.25 1.1875 1.25 3.0625l-2.28125 0q0 -0.953125 -0.640625 -1.609375q-0.640625 -0.671875 -1.625 -0.671875q-1.015625 0 -1.59375 0.53125q-0.578125 0.515625 -0.578125 1.40625q0 0.703125 0.421875 1.140625q0.421875 0.421875 2.03125 1.125q2.5625 1.0 3.484375 1.953125q0.9375 0.953125 0.9375 2.421875q0 1.84375 -1.265625 2.953125q-1.265625 1.09375 -3.390625 1.09375q-2.203125 0 -3.578125 -1.265625q-1.359375 -1.265625 -1.359375 -3.203125l2.328125 0q0.03125 1.171875 0.703125 1.84375q0.6875 0.65625 1.90625 0.65625q1.140625 0 1.734375 -0.515625q0.609375 -0.515625 0.609375 -1.390625zm12.143677 0q0 -0.734375 -0.5625 -1.265625q-0.5625 -0.546875 -2.15625 -1.25q-1.859375 -0.765625 -2.625 -1.3125q-0.765625 -0.546875 -1.140625 -1.25q-0.375 -0.703125 -0.375 -1.65625q0 -1.71875 1.25 -2.859375q1.265625 -1.140625 3.21875 -1.140625q2.046875 0 3.296875 1.203125q1.25 1.1875 1.25 3.0625l-2.28125 0q0 -0.953125 -0.640625 -1.609375q-0.640625 -0.671875 -1.625 -0.671875q-1.015625 0 -1.59375 0.53125q-0.578125 0.515625 -0.578125 1.40625q0 0.703125 0.421875 1.140625q0.421875 0.421875 2.03125 1.125q2.5625 1.0 3.484375 1.953125q0.9375 0.953125 0.9375 2.421875q0 1.84375 -1.265625 2.953125q-1.265625 1.09375 -3.390625 1.09375q-2.203125 0 -3.578125 -1.265625q-1.359375 -1.265625 -1.359375 -3.203125l2.328125 0q0.03125 1.171875 0.703125 1.84375q0.6875 0.65625 1.90625 0.65625q1.140625 0 1.734375 -0.515625q0.609375 -0.515625 0.609375 -1.390625zm11.732452 3.609375l0 -18.953125l4.515625 0q3.3125 0 5.140625 2.078125q1.84375 2.078125 1.84375 5.84375l0 3.171875q0 3.765625 -1.859375 5.8125q-1.859375 2.046875 -5.40625 2.046875l-4.234375 0zm2.375 -16.890625l0 14.84375l1.921875 0q2.5 0 3.65625 -1.4375q1.171875 -1.4375 1.1875 -4.265625l0 -3.359375q0 -2.984375 -1.15625 -4.375q-1.140625 -1.40625 -3.46875 -1.40625l-2.140625 0zm19.762268 16.890625q-0.203125 -0.453125 -0.296875 -1.53125q-1.234375 1.796875 -3.125 1.796875q-1.921875 0 -3.0 -1.078125q-1.0625 -1.078125 -1.0625 -3.03125q0 -2.140625 1.453125 -3.40625q1.46875 -1.265625 4.0 -1.28125l1.6875 0l0 -1.5q0 -1.265625 -0.5625 -1.796875q-0.546875 -0.53125 -1.703125 -0.53125q-1.03125 0 -1.6875 0.625q-0.65625 0.609375 -0.65625 1.5625l-2.296875 0q0 -1.09375 0.640625 -2.0625q0.640625 -0.984375 1.71875 -1.546875q1.078125 -0.5625 2.40625 -0.5625q2.15625 0 3.28125 1.078125q1.125 1.0625 1.15625 3.125l0 7.109375q0.015625 1.625 0.4375 2.828125l0 0.203125l-2.390625 0zm-3.078125 -1.828125q0.84375 0 1.609375 -0.46875q0.78125 -0.46875 1.125 -1.171875l0 -3.359375l-1.296875 0q-1.640625 0.015625 -2.59375 0.734375q-0.953125 0.703125 -0.953125 1.984375q0 1.1875 0.484375 1.734375q0.484375 0.546875 1.625 0.546875zm11.612244 -15.671875l0 3.421875l2.125 0l0 1.859375l-2.125 0l0 8.734375q0 0.828125 0.265625 1.265625q0.28125 0.421875 0.953125 0.421875q0.453125 0 0.921875 -0.15625l-0.03125 1.953125q-0.78125 0.265625 -1.59375 0.265625q-1.375 0 -2.09375 -0.96875q-0.703125 -0.984375 -0.703125 -2.765625l0 -8.75l-2.15625 0l0 -1.859375l2.15625 0l0 -3.421875l2.28125 0zm12.108887 17.5q-0.203125 -0.453125 -0.296875 -1.53125q-1.234375 1.796875 -3.125 1.796875q-1.921875 0 -3.0 -1.078125q-1.0625 -1.078125 -1.0625 -3.03125q0 -2.140625 1.453125 -3.40625q1.46875 -1.265625 4.0 -1.28125l1.6875 0l0 -1.5q0 -1.265625 -0.5625 -1.796875q-0.546875 -0.53125 -1.703125 -0.53125q-1.03125 0 -1.6875 0.625q-0.65625 0.609375 -0.65625 1.5625l-2.296875 0q0 -1.09375 0.640625 -2.0625q0.640625 -0.984375 1.71875 -1.546875q1.078125 -0.5625 2.40625 -0.5625q2.15625 0 3.28125 1.078125q1.125 1.0625 1.15625 3.125l0 7.109375q0.015625 1.625 0.4375 2.828125l0 0.203125l-2.390625 0zm-3.078125 -1.828125q0.84375 0 1.609375 -0.46875q0.78125 -0.46875 1.125 -1.171875l0 -3.359375l-1.296875 0q-1.640625 0.015625 -2.59375 0.734375q-0.953125 0.703125 -0.953125 1.984375q0 1.1875 0.484375 1.734375q0.484375 0.546875 1.625 0.546875z" fill-rule="nonzero"/></g><g filter="url(#shadowFilter-g3973a57c63_0_68.3)"><use xlink:href="#g3973a57c63_0_68.3" transform="matrix(1.0 0.0 0.0 1.0 0.0 2.0)"/></g><defs><filter id="shadowFilter-g3973a57c63_0_68.3" filterUnits="userSpaceOnUse"><feGaussianBlur in="SourceAlpha" stdDeviation="2.0" result="blur"/><feComponentTransfer in="blur" color-interpolation-filters="sRGB"><feFuncR type="linear" slope="0" intercept="0.6"/><feFuncG type="linear" slope="0" intercept="0.6"/><feFuncB type="linear" slope="0" intercept="0.6"/><feFuncA type="linear" slope="0.5" intercept="0"/></feComponentTransfer></filter></defs><g id="g3973a57c63_0_68.3"><path fill="#4a86e8" d="m313.91122 185.60406l0 0c0 -1.8416138 1.4929199 -3.3345337 3.3345337 -3.3345337l315.31522 0c0.8843384 0 1.7324829 0.35131836 2.3578491 0.9766693c0.6253662 0.62535095 0.9766846 1.4734955 0.9766846 2.3578644l0 14.370316c0 1.8416138 -1.4929199 3.3345337 -3.3345337 3.3345337l-315.31522 0c-1.8416138 0 -3.3345337 -1.4929199 -3.3345337 -3.3345337z" fill-rule="evenodd"/></g><path fill="#000000" fill-opacity="0.0" d="m417.8358 175.14664l125.88974 0l0 38.015747l-125.88974 0z" fill-rule="evenodd"/><path fill="#ffffff" d="m438.37247 192.32288l0 3.34375l-1.078125 0l0 -8.53125l2.71875 0q1.1875 0 1.859375 0.71875q0.6875 0.703125 0.6875 1.890625q0 1.234375 -0.65625 1.90625q-0.640625 0.65625 -1.8125 0.671875l-1.71875 0zm0 -0.921875l1.640625 0q0.71875 0 1.09375 -0.421875q0.375 -0.421875 0.375 -1.21875q0 -0.78125 -0.390625 -1.234375q-0.390625 -0.46875 -1.078125 -0.46875l-1.640625 0l0 3.34375zm8.041016 -1.109375q-0.21875 -0.03125 -0.46875 -0.03125q-0.796875 0 -1.109375 0.875l0 4.53125l-1.03125 0l0 -6.34375l1.0 0l0.015625 0.640625q0.421875 -0.75 1.1875 -0.75q0.234375 0 0.40625 0.078125l0 1.0zm3.3066406 5.5q-1.1875 0 -1.828125 -0.703125q-0.625 -0.71875 -0.640625 -2.078125l0 -0.765625q0 -1.421875 0.609375 -2.21875q0.625 -0.8125 1.734375 -0.8125q1.109375 0 1.65625 0.703125q0.5625 0.703125 0.578125 2.203125l0 0.6875l-3.546875 0l0 0.140625q0 1.03125 0.375 1.5q0.390625 0.453125 1.109375 0.453125q0.46875 0 0.8125 -0.171875q0.34375 -0.171875 0.65625 -0.546875l0.53125 0.65625q-0.671875 0.953125 -2.046875 0.953125zm-0.125 -5.6875q-0.640625 0 -0.953125 0.4375q-0.3125 0.4375 -0.34375 1.375l2.484375 0l0 -0.140625q-0.03125 -0.90625 -0.328125 -1.28125q-0.28125 -0.390625 -0.859375 -0.390625zm8.056641 2.703125q0 1.5 -0.546875 2.25q-0.546875 0.734375 -1.53125 0.734375q-0.953125 0 -1.46875 -0.734375l0 3.046875l-1.03125 0l0 -8.78125l0.9375 0l0.046875 0.703125q0.53125 -0.8125 1.5 -0.8125q1.046875 0 1.5625 0.734375q0.515625 0.71875 0.53125 2.15625l0 0.703125zm-1.03125 -0.59375q0 -1.078125 -0.328125 -1.578125q-0.328125 -0.5 -1.0625 -0.5q-0.734375 0 -1.125 0.734375l0 3.296875q0.375 0.734375 1.140625 0.734375q0.703125 0 1.03125 -0.5q0.328125 -0.515625 0.34375 -1.5625l0 -0.625zm4.9804688 -1.921875q-0.21875 -0.03125 -0.46875 -0.03125q-0.796875 0 -1.109375 0.875l0 4.53125l-1.03125 0l0 -6.34375l1.0 0l0.015625 0.640625q0.421875 -0.75 1.1875 -0.75q0.234375 0 0.40625 0.078125l0 1.0zm0.8222656 1.90625q0 -1.375 0.671875 -2.171875q0.671875 -0.8125 1.765625 -0.8125q1.109375 0 1.765625 0.78125q0.671875 0.78125 0.703125 2.140625l0 0.671875q0 1.375 -0.671875 2.1875q-0.671875 0.796875 -1.78125 0.796875q-1.109375 0 -1.78125 -0.78125q-0.65625 -0.78125 -0.671875 -2.109375l0 -0.703125zm1.03125 0.609375q0 0.96875 0.375 1.53125q0.390625 0.5625 1.046875 0.5625q1.375 0 1.40625 -1.984375l0 -0.71875q0 -0.96875 -0.390625 -1.53125q-0.375 -0.5625 -1.03125 -0.5625q-0.640625 0 -1.03125 0.5625q-0.375 0.5625 -0.375 1.53125l0 0.609375zm7.4140625 2.09375q0.515625 0 0.8125 -0.3125q0.3125 -0.328125 0.34375 -0.921875l0.984375 0q-0.03125 0.921875 -0.65625 1.53125q-0.609375 0.59375 -1.484375 0.59375q-1.1875 0 -1.8125 -0.734375q-0.609375 -0.75 -0.609375 -2.21875l0 -0.703125q0 -1.4375 0.609375 -2.171875q0.625 -0.75 1.796875 -0.75q0.96875 0 1.546875 0.609375q0.578125 0.609375 0.609375 1.6875l-0.984375 0q-0.03125 -0.703125 -0.34375 -1.046875q-0.296875 -0.359375 -0.828125 -0.359375q-0.6875 0 -1.03125 0.453125q-0.328125 0.453125 -0.34375 1.484375l0 0.8125q0 1.125 0.328125 1.59375q0.34375 0.453125 1.0625 0.453125zm5.6054688 0.890625q-1.1875 0 -1.828125 -0.703125q-0.625 -0.71875 -0.640625 -2.078125l0 -0.765625q0 -1.421875 0.609375 -2.21875q0.625 -0.8125 1.734375 -0.8125q1.109375 0 1.65625 0.703125q0.5625 0.703125 0.578125 2.203125l0 0.6875l-3.546875 0l0 0.140625q0 1.03125 0.375 1.5q0.390625 0.453125 1.109375 0.453125q0.46875 0 0.8125 -0.171875q0.34375 -0.171875 0.65625 -0.546875l0.53125 0.65625q-0.671875 0.953125 -2.046875 0.953125zm-0.125 -5.6875q-0.640625 0 -0.953125 0.4375q-0.3125 0.4375 -0.34375 1.375l2.484375 0l0 -0.140625q-0.03125 -0.90625 -0.328125 -1.28125q-0.28125 -0.390625 -0.859375 -0.390625zm6.5566406 3.9375q0 -0.328125 -0.25 -0.5625q-0.25 -0.25 -0.984375 -0.578125q-0.828125 -0.34375 -1.171875 -0.578125q-0.34375 -0.25 -0.515625 -0.5625q-0.171875 -0.3125 -0.171875 -0.75q0 -0.78125 0.5625 -1.28125q0.578125 -0.515625 1.453125 -0.515625q0.921875 0 1.484375 0.546875q0.5625 0.53125 0.5625 1.375l-1.03125 0q0 -0.4375 -0.296875 -0.734375q-0.28125 -0.296875 -0.71875 -0.296875q-0.453125 0 -0.71875 0.234375q-0.265625 0.234375 -0.265625 0.640625q0 0.3125 0.1875 0.515625q0.203125 0.1875 0.921875 0.5q1.15625 0.453125 1.5625 0.890625q0.421875 0.421875 0.421875 1.078125q0 0.828125 -0.578125 1.328125q-0.5625 0.5 -1.515625 0.5q-0.984375 0 -1.609375 -0.5625q-0.609375 -0.578125 -0.609375 -1.453125l1.046875 0q0.015625 0.53125 0.3125 0.828125q0.3125 0.296875 0.859375 0.296875q0.515625 0 0.78125 -0.234375q0.28125 -0.234375 0.28125 -0.625zm5.466797 0q0 -0.328125 -0.25 -0.5625q-0.25 -0.25 -0.984375 -0.578125q-0.828125 -0.34375 -1.171875 -0.578125q-0.34375 -0.25 -0.515625 -0.5625q-0.171875 -0.3125 -0.171875 -0.75q0 -0.78125 0.5625 -1.28125q0.578125 -0.515625 1.453125 -0.515625q0.921875 0 1.484375 0.546875q0.5625 0.53125 0.5625 1.375l-1.03125 0q0 -0.4375 -0.296875 -0.734375q-0.28125 -0.296875 -0.71875 -0.296875q-0.453125 0 -0.71875 0.234375q-0.265625 0.234375 -0.265625 0.640625q0 0.3125 0.1875 0.515625q0.203125 0.1875 0.921875 0.5q1.15625 0.453125 1.5625 0.890625q0.421875 0.421875 0.421875 1.078125q0 0.828125 -0.578125 1.328125q-0.5625 0.5 -1.515625 0.5q-0.984375 0 -1.609375 -0.5625q-0.609375 -0.578125 -0.609375 -1.453125l1.046875 0q0.015625 0.53125 0.3125 0.828125q0.3125 0.296875 0.859375 0.296875q0.515625 0 0.78125 -0.234375q0.28125 -0.234375 0.28125 -0.625zm3.9042969 -6.90625l2.234375 6.953125l2.21875 -6.953125l1.390625 0l0 8.53125l-1.078125 0l0 -3.328125l0.109375 -3.328125l-2.234375 6.65625l-0.828125 0l-2.21875 -6.625l0.109375 3.296875l0 3.328125l-1.078125 0l0 -8.53125l1.375 0zm7.330078 5.0625q0 -1.375 0.671875 -2.171875q0.671875 -0.8125 1.765625 -0.8125q1.109375 0 1.765625 0.78125q0.671875 0.78125 0.703125 2.140625l0 0.671875q0 1.375 -0.671875 2.1875q-0.671875 0.796875 -1.78125 0.796875q-1.109375 0 -1.78125 -0.78125q-0.65625 -0.78125 -0.671875 -2.109375l0 -0.703125zm1.03125 0.609375q0 0.96875 0.375 1.53125q0.390625 0.5625 1.046875 0.5625q1.375 0 1.40625 -1.984375l0 -0.71875q0 -0.96875 -0.390625 -1.53125q-0.375 -0.5625 -1.03125 -0.5625q-0.640625 0 -1.03125 0.5625q-0.375 0.5625 -0.375 1.53125l0 0.609375zm4.9921875 -0.59375q0 -1.46875 0.546875 -2.234375q0.546875 -0.765625 1.5625 -0.765625q0.921875 0 1.421875 0.734375l0 -3.28125l1.046875 0l0 9.0l-0.953125 0l-0.0625 -0.6875q-0.5 0.8125 -1.453125 0.8125q-0.984375 0 -1.546875 -0.765625q-0.5625 -0.765625 -0.5625 -2.171875l0 -0.640625zm1.03125 0.59375q0 1.0625 0.3125 1.5625q0.328125 0.5 1.03125 0.5q0.78125 0 1.15625 -0.78125l0 -3.203125q-0.390625 -0.75 -1.140625 -0.75q-0.71875 0 -1.046875 0.5q-0.3125 0.5 -0.3125 1.53125l0 0.640625zm8.3749695 2.296875q-0.515625 0.6875 -1.515625 0.6875q-0.859375 0 -1.296875 -0.59375q-0.43746948 -0.609375 -0.45309448 -1.734375l0 -4.140625l1.0312195 0l0 4.0625q0 1.484375 0.890625 1.484375q0.953125 0 1.3125 -0.84375l0 -4.703125l1.03125 0l0 6.34375l-0.984375 0l-0.015625 -0.5625zm3.6757812 0.5625l-1.03125 0l0 -9.0l1.03125 0l0 9.0zm3.9042969 0.125q-1.1875 0 -1.828125 -0.703125q-0.625 -0.71875 -0.640625 -2.078125l0 -0.765625q0 -1.421875 0.609375 -2.21875q0.625 -0.8125 1.734375 -0.8125q1.109375 0 1.65625 0.703125q0.5625 0.703125 0.578125 2.203125l0 0.6875l-3.546875 0l0 0.140625q0 1.03125 0.375 1.5q0.390625 0.453125 1.109375 0.453125q0.46875 0 0.8125 -0.171875q0.34375 -0.171875 0.65625 -0.546875l0.53125 0.65625q-0.671875 0.953125 -2.046875 0.953125zm-0.125 -5.6875q-0.640625 0 -0.953125 0.4375q-0.3125 0.4375 -0.34375 1.375l2.484375 0l0 -0.140625q-0.03125 -0.90625 -0.328125 -1.28125q-0.28125 -0.390625 -0.859375 -0.390625z" fill-rule="nonzero"/><g filter="url(#shadowFilter-g3973a57c63_0_68.4)"><use xlink:href="#g3973a57c63_0_68.4" transform="matrix(1.0 0.0 0.0 1.0 0.0 2.0)"/></g><defs><filter id="shadowFilter-g3973a57c63_0_68.4" filterUnits="userSpaceOnUse"><feGaussianBlur in="SourceAlpha" stdDeviation="2.0" result="blur"/><feComponentTransfer in="blur" color-interpolation-filters="sRGB"><feFuncR type="linear" slope="0" intercept="0.6"/><feFuncG type="linear" slope="0" intercept="0.6"/><feFuncB type="linear" slope="0" intercept="0.6"/><feFuncA type="linear" slope="0.5" intercept="0"/></feComponentTransfer></filter></defs><g id="g3973a57c63_0_68.4"><path fill="#b7b7b7" d="m32.818108 132.00215l0 0c0 -2.2307281 1.8083572 -4.0390854 4.0390816 -4.0390854l194.85097 0c1.071228 0 2.098587 0.42554474 2.8560638 1.1830215c0.7574768 0.7574768 1.1830139 1.7848358 1.1830139 2.8560638l0 67.291916c0 2.230713 -1.8083496 4.0390778 -4.0390778 4.0390778l-194.85097 0c-2.2307243 0 -4.0390816 -1.8083649 -4.0390816 -4.0390778z" fill-rule="evenodd"/><path fill="#ffffff" d="m95.765976 163.74608l0 -18.953125l4.515625 0q3.3125 0 5.140625 2.078125q1.84375 2.078125 1.84375 5.84375l0 3.171875q0 3.765625 -1.859375 5.8125q-1.859375 2.046875 -5.40625 2.046875l-4.234375 0zm2.375 -16.890625l0 14.84375l1.921875 0q2.5 0 3.65625 -1.4375q1.171875 -1.4375 1.1875 -4.265625l0 -3.359375q0 -2.984375 -1.15625 -4.375q-1.140625 -1.40625 -3.46875 -1.40625l-2.140625 0zm19.762283 16.890625q-0.203125 -0.453125 -0.296875 -1.53125q-1.234375 1.796875 -3.125 1.796875q-1.921875 0 -3.0 -1.078125q-1.0625 -1.078125 -1.0625 -3.03125q0 -2.140625 1.453125 -3.40625q1.46875 -1.265625 4.0 -1.28125l1.6875 0l0 -1.5q0 -1.265625 -0.5625 -1.796875q-0.546875 -0.53125 -1.703125 -0.53125q-1.03125 0 -1.6875 0.625q-0.65625 0.609375 -0.65625 1.5625l-2.296875 0q0 -1.09375 0.640625 -2.0625q0.640625 -0.984375 1.71875 -1.546875q1.078125 -0.5625 2.40625 -0.5625q2.15625 0 3.28125 1.078125q1.125 1.0625 1.15625 3.125l0 7.109375q0.015625 1.625 0.4375 2.828125l0 0.203125l-2.390625 0zm-3.078125 -1.828125q0.84375 0 1.609375 -0.46875q0.78125 -0.46875 1.125 -1.171875l0 -3.359375l-1.296875 0q-1.640625 0.015625 -2.59375 0.734375q-0.953125 0.703125 -0.953125 1.984375q0 1.1875 0.484375 1.734375q0.484375 0.546875 1.625 0.546875zm11.612198 -15.671875l0 3.421875l2.125 0l0 1.859375l-2.125 0l0 8.734375q0 0.828125 0.265625 1.265625q0.28125 0.421875 0.953125 0.421875q0.453125 0 0.921875 -0.15625l-0.03125 1.953125q-0.78125 0.265625 -1.59375 0.265625q-1.375 0 -2.09375 -0.96875q-0.703125 -0.984375 -0.703125 -2.765625l0 -8.75l-2.15625 0l0 -1.859375l2.15625 0l0 -3.421875l2.28125 0zm12.108902 17.5q-0.203125 -0.453125 -0.296875 -1.53125q-1.234375 1.796875 -3.125 1.796875q-1.921875 0 -3.0 -1.078125q-1.0625 -1.078125 -1.0625 -3.03125q0 -2.140625 1.453125 -3.40625q1.46875 -1.265625 4.0 -1.28125l1.6875 0l0 -1.5q0 -1.265625 -0.5625 -1.796875q-0.546875 -0.53125 -1.703125 -0.53125q-1.03125 0 -1.6875 0.625q-0.65625 0.609375 -0.65625 1.5625l-2.296875 0q0 -1.09375 0.640625 -2.0625q0.640625 -0.984375 1.71875 -1.546875q1.078125 -0.5625 2.40625 -0.5625q2.15625 0 3.28125 1.078125q1.125 1.0625 1.15625 3.125l0 7.109375q0.015625 1.625 0.4375 2.828125l0 0.203125l-2.390625 0zm-3.078125 -1.828125q0.84375 0 1.609375 -0.46875q0.78125 -0.46875 1.125 -1.171875l0 -3.359375l-1.296875 0q-1.640625 0.015625 -2.59375 0.734375q-0.953125 0.703125 -0.953125 1.984375q0 1.1875 0.484375 1.734375q0.484375 0.546875 1.625 0.546875zm15.440323 -1.78125q0 -0.734375 -0.5625 -1.265625q-0.5625 -0.546875 -2.15625 -1.25q-1.859375 -0.765625 -2.625 -1.3125q-0.765625 -0.546875 -1.140625 -1.25q-0.375 -0.703125 -0.375 -1.65625q0 -1.71875 1.25 -2.859375q1.265625 -1.140625 3.21875 -1.140625q2.046875 0 3.296875 1.203125q1.25 1.1875 1.25 3.0625l-2.28125 0q0 -0.953125 -0.640625 -1.609375q-0.640625 -0.671875 -1.625 -0.671875q-1.015625 0 -1.59375 0.53125q-0.578125 0.515625 -0.578125 1.40625q0 0.703125 0.421875 1.140625q0.421875 0.421875 2.03125 1.125q2.5625 1.0 3.484375 1.953125q0.9375 0.953125 0.9375 2.421875q0 1.84375 -1.265625 2.953125q-1.265625 1.09375 -3.390625 1.09375q-2.203125 0 -3.578125 -1.265625q-1.359375 -1.265625 -1.359375 -3.203125l2.328125 0q0.03125 1.171875 0.703125 1.84375q0.6875 0.65625 1.90625 0.65625q1.140625 0 1.734375 -0.515625q0.609375 -0.515625 0.609375 -1.390625zm10.331192 3.875q-2.625 0 -4.03125 -1.5625q-1.40625 -1.578125 -1.4375 -4.609375l0 -1.703125q0 -3.15625 1.375 -4.9375q1.375 -1.796875 3.84375 -1.796875q2.46875 0 3.6875 1.578125q1.234375 1.578125 1.25 4.90625l0 1.5l-7.859375 0l0 0.328125q0 2.265625 0.84375 3.296875q0.859375 1.03125 2.46875 1.03125q1.015625 0 1.78125 -0.375q0.78125 -0.390625 1.453125 -1.234375l1.203125 1.46875q-1.5 2.109375 -4.578125 2.109375zm-0.25 -12.625q-1.4375 0 -2.125 0.984375q-0.6875 0.96875 -0.78125 3.046875l5.546875 0l0 -0.3125q-0.09375 -2.0 -0.734375 -2.859375q-0.625 -0.859375 -1.90625 -0.859375zm10.716476 -5.140625l0 3.421875l2.125 0l0 1.859375l-2.125 0l0 8.734375q0 0.828125 0.265625 1.265625q0.28125 0.421875 0.953125 0.421875q0.453125 0 0.921875 -0.15625l-0.03125 1.953125q-0.78125 0.265625 -1.59375 0.265625q-1.375 0 -2.09375 -0.96875q-0.703125 -0.984375 -0.703125 -2.765625l0 -8.75l-2.15625 0l0 -1.859375l2.15625 0l0 -3.421875l2.28125 0z" fill-rule="nonzero"/></g><g filter="url(#shadowFilter-g3973a57c63_0_68.5)"><use xlink:href="#g3973a57c63_0_68.5" transform="matrix(1.0 0.0 0.0 1.0 0.0 2.0)"/></g><defs><filter id="shadowFilter-g3973a57c63_0_68.5" filterUnits="userSpaceOnUse"><feGaussianBlur in="SourceAlpha" stdDeviation="2.0" result="blur"/><feComponentTransfer in="blur" color-interpolation-filters="sRGB"><feFuncR type="linear" slope="0" intercept="0.6"/><feFuncG type="linear" slope="0" intercept="0.6"/><feFuncB type="linear" slope="0" intercept="0.6"/><feFuncA type="linear" slope="0.5" intercept="0"/></feComponentTransfer></filter></defs><g id="g3973a57c63_0_68.5"><path fill="#666666" d="m32.818108 185.24556l0 0c0 -1.8416138 1.4929199 -3.3345337 3.3345299 -3.3345337l196.26007 0c0.88438416 0 1.7325287 0.35131836 2.3578796 0.97665405c0.6253357 0.62535095 0.97665405 1.4734955 0.97665405 2.3578796l0 14.3703c0 1.8416138 -1.4929199 3.3345337 -3.3345337 3.3345337l-196.26007 0l0 0c-1.84161 0 -3.3345299 -1.4929199 -3.3345299 -3.3345337z" fill-rule="evenodd"/></g><path fill="#000000" fill-opacity="0.0" d="m91.95378 175.14319l84.66142 0l0 38.015747l-84.66142 0z" fill-rule="evenodd"/><path fill="#ffffff" d="m109.27668 192.21007q0 -1.46875 0.546875 -2.234375q0.546875 -0.765625 1.5625 -0.765625q0.921875 0 1.421875 0.734375l0 -3.28125l1.046875 0l0 9.0l-0.953125 0l-0.0625 -0.6875q-0.5 0.8125 -1.453125 0.8125q-0.984375 0 -1.546875 -0.765625q-0.5625 -0.765625 -0.5625 -2.171875l0 -0.640625zm1.03125 0.59375q0 1.0625 0.3125 1.5625q0.328125 0.5 1.03125 0.5q0.78125 0 1.15625 -0.78125l0 -3.203125q-0.390625 -0.75 -1.140625 -0.75q-0.71875 0 -1.046875 0.5q-0.3125 0.5 -0.3125 1.53125l0 0.640625zm8.390625 2.859375q-0.09375 -0.203125 -0.125 -0.6875q-0.546875 0.8125 -1.40625 0.8125q-0.859375 0 -1.34375 -0.484375q-0.484375 -0.484375 -0.484375 -1.375q0 -0.96875 0.65625 -1.53125q0.65625 -0.5625 1.796875 -0.578125l0.765625 0l0 -0.671875q0 -0.578125 -0.265625 -0.8125q-0.25 -0.234375 -0.765625 -0.234375q-0.46875 0 -0.765625 0.28125q-0.28125 0.265625 -0.28125 0.703125l-1.03125 0q0 -0.484375 0.28125 -0.921875q0.28125 -0.453125 0.765625 -0.703125q0.5 -0.25 1.09375 -0.25q0.96875 0 1.46875 0.484375q0.515625 0.484375 0.53125 1.40625l0 3.203125q0 0.71875 0.1875 1.265625l0 0.09375l-1.078125 0zm-1.375 -0.828125q0.375 0 0.71875 -0.203125q0.359375 -0.21875 0.515625 -0.53125l0 -1.515625l-0.59375 0q-0.734375 0.015625 -1.171875 0.34375q-0.421875 0.3125 -0.421875 0.875q0 0.546875 0.21875 0.796875q0.21875 0.234375 0.734375 0.234375zm5.232422 -7.046875l0 1.53125l0.953125 0l0 0.84375l-0.953125 0l0 3.921875q0 0.375 0.109375 0.578125q0.125 0.1875 0.421875 0.1875q0.21875 0 0.421875 -0.0625l-0.015625 0.875q-0.34375 0.125 -0.71875 0.125q-0.609375 0 -0.9375 -0.4375q-0.3125 -0.453125 -0.3125 -1.25l0 -3.9375l-0.96875 0l0 -0.84375l0.96875 0l0 -1.53125l1.03125 0zm5.435547 7.875q-0.09375 -0.203125 -0.125 -0.6875q-0.546875 0.8125 -1.40625 0.8125q-0.859375 0 -1.34375 -0.484375q-0.484375 -0.484375 -0.484375 -1.375q0 -0.96875 0.65625 -1.53125q0.65625 -0.5625 1.796875 -0.578125l0.765625 0l0 -0.671875q0 -0.578125 -0.265625 -0.8125q-0.25 -0.234375 -0.765625 -0.234375q-0.46875 0 -0.765625 0.28125q-0.28125 0.265625 -0.28125 0.703125l-1.03125 0q0 -0.484375 0.28125 -0.921875q0.28125 -0.453125 0.765625 -0.703125q0.5 -0.25 1.09375 -0.25q0.96875 0 1.4687424 0.484375q0.515625 0.484375 0.53125 1.40625l0 3.203125q0 0.71875 0.1875 1.265625l0 0.09375l-1.0781174 0zm-1.375 -0.828125q0.375 0 0.71875 -0.203125q0.359375 -0.21875 0.515625 -0.53125l0 -1.515625l-0.59375 0q-0.734375 0.015625 -1.171875 0.34375q-0.421875 0.3125 -0.421875 0.875q0 0.546875 0.21875 0.796875q0.21875 0.234375 0.734375 0.234375zm6.9511642 -0.796875q0 -0.328125 -0.25 -0.5625q-0.25 -0.25 -0.984375 -0.578125q-0.828125 -0.34375 -1.171875 -0.578125q-0.34375 -0.25 -0.515625 -0.5625q-0.171875 -0.3125 -0.171875 -0.75q0 -0.78125 0.5625 -1.28125q0.578125 -0.515625 1.453125 -0.515625q0.921875 0 1.484375 0.546875q0.5625 0.53125 0.5625 1.375l-1.03125 0q0 -0.4375 -0.296875 -0.734375q-0.28125 -0.296875 -0.71875 -0.296875q-0.453125 0 -0.71875 0.234375q-0.265625 0.234375 -0.265625 0.640625q0 0.3125 0.1875 0.515625q0.203125 0.1875 0.921875 0.5q1.15625 0.453125 1.5625 0.890625q0.421875 0.421875 0.421875 1.078125q0 0.828125 -0.578125 1.328125q-0.5625 0.5 -1.515625 0.5q-0.984375 0 -1.609375 -0.5625q-0.609375 -0.578125 -0.609375 -1.453125l1.046875 0q0.015625 0.53125 0.3125 0.828125q0.3125 0.296875 0.859375 0.296875q0.515625 0 0.78125 -0.234375q0.28125 -0.234375 0.28125 -0.625zm4.654297 1.75q-1.1875 0 -1.828125 -0.703125q-0.625 -0.71875 -0.640625 -2.078125l0 -0.765625q0 -1.421875 0.609375 -2.21875q0.625 -0.8125 1.734375 -0.8125q1.109375 0 1.65625 0.703125q0.5625 0.703125 0.578125 2.203125l0 0.6875l-3.546875 0l0 0.140625q0 1.03125 0.375 1.5q0.390625 0.453125 1.109375 0.453125q0.46875 0 0.8125 -0.171875q0.34375 -0.171875 0.65625 -0.546875l0.53125 0.65625q-0.671875 0.953125 -2.046875 0.953125zm-0.125 -5.6875q-0.640625 0 -0.953125 0.4375q-0.3125 0.4375 -0.34375 1.375l2.484375 0l0 -0.140625q-0.03125 -0.90625 -0.328125 -1.28125q-0.28125 -0.390625 -0.859375 -0.390625zm4.8378906 -2.3125l0 1.53125l0.953125 0l0 0.84375l-0.953125 0l0 3.921875q0 0.375 0.109375 0.578125q0.125 0.1875 0.421875 0.1875q0.21875 0 0.421875 -0.0625l-0.015625 0.875q-0.34375 0.125 -0.71875 0.125q-0.609375 0 -0.9375 -0.4375q-0.3125 -0.453125 -0.3125 -1.25l0 -3.9375l-0.96875 0l0 -0.84375l0.96875 0l0 -1.53125l1.03125 0zm2.2480469 7.3125q0 -0.28125 0.15625 -0.46875q0.171875 -0.1875 0.5 -0.1875q0.34375 0 0.515625 0.1875q0.171875 0.1875 0.171875 0.46875q0 0.265625 -0.171875 0.453125q-0.171875 0.171875 -0.515625 0.171875q-0.328125 0 -0.5 -0.171875q-0.15625 -0.1875 -0.15625 -0.453125zm4.455078 -7.3125l0 1.53125l0.953125 0l0 0.84375l-0.953125 0l0 3.921875q0 0.375 0.109375 0.578125q0.125 0.1875 0.421875 0.1875q0.21875 0 0.421875 -0.0625l-0.015625 0.875q-0.34375 0.125 -0.71875 0.125q-0.609375 0 -0.9375 -0.4375q-0.3125 -0.453125 -0.3125 -1.25l0 -3.9375l-0.96875 0l0 -0.84375l0.96875 0l0 -1.53125l1.03125 0zm4.013672 3.84375l1.078125 -2.3125l1.203125 0l-1.71875 3.140625l1.765625 3.203125l-1.1875 0l-1.125 -2.375l-1.125 2.375l-1.1875 0l1.75 -3.203125l-1.703125 -3.140625l1.1875 0l1.0625 2.3125zm4.798828 -3.84375l0 1.53125l0.953125 0l0 0.84375l-0.953125 0l0 3.921875q0 0.375 0.109375 0.578125q0.125 0.1875 0.421875 0.1875q0.21875 0 0.421875 -0.0625l-0.015625 0.875q-0.34375 0.125 -0.71875 0.125q-0.609375 0 -0.9375 -0.4375q-0.3125 -0.453125 -0.3125 -1.25l0 -3.9375l-0.96875 0l0 -0.84375l0.96875 0l0 -1.53125l1.03125 0z" fill-rule="nonzero"/><g filter="url(#shadowFilter-g3973a57c63_0_68.6)"><use xlink:href="#g3973a57c63_0_68.6" transform="matrix(1.0 0.0 0.0 1.0 0.0 2.0)"/></g><defs><filter id="shadowFilter-g3973a57c63_0_68.6" filterUnits="userSpaceOnUse"><feGaussianBlur in="SourceAlpha" stdDeviation="2.0" result="blur"/><feComponentTransfer in="blur" color-interpolation-filters="sRGB"><feFuncR type="linear" slope="0" intercept="0.6"/><feFuncG type="linear" slope="0" intercept="0.6"/><feFuncB type="linear" slope="0" intercept="0.6"/><feFuncA type="linear" slope="0.5" intercept="0"/></feComponentTransfer></filter></defs><g id="g3973a57c63_0_68.6"><path fill="#b7b7b7" d="m713.9833 83.86851l0 0c0 -2.2307205 1.8083496 -4.0390854 4.0390625 -4.0390854l194.85095 0c1.0712891 0 2.0986328 0.42554474 2.856079 1.1830215c0.7575073 0.7574768 1.1830444 1.7848358 1.1830444 2.8560638l0 67.29191c0 2.2307281 -1.8083496 4.039093 -4.0391235 4.039093l-194.85095 0c-2.230713 0 -4.0390625 -1.8083649 -4.0390625 -4.039093z" fill-rule="evenodd"/><path fill="#ffffff" d="m792.2228 109.5968q-0.15625 3.046875 -1.71875 4.671875q-1.546875 1.609375 -4.375 1.609375q-2.859375 0 -4.546875 -2.171875q-1.671875 -2.171875 -1.671875 -5.875l0 -3.4375q0 -3.703125 1.71875 -5.84375q1.734375 -2.15625 4.71875 -2.15625q2.75 0 4.25 1.65625q1.5 1.640625 1.625 4.703125l-2.40625 0q-0.15625 -2.3125 -0.984375 -3.296875q-0.8125 -1.0 -2.484375 -1.0q-1.9375 0 -2.984375 1.515625q-1.046875 1.515625 -1.046875 4.453125l0 3.46875q0 2.875 0.96875 4.421875q0.984375 1.53125 2.84375 1.53125q1.859375 0 2.671875 -0.921875q0.828125 -0.9375 1.015625 -3.328125l2.40625 0zm2.423767 -1.671875q0 -3.078125 1.484375 -4.859375q1.5 -1.796875 3.9375 -1.796875q2.453125 0 3.9375 1.75q1.5 1.734375 1.53125 4.75l0 1.484375q0 3.046875 -1.484375 4.84375q-1.484375 1.78125 -3.953125 1.78125q-2.4375 0 -3.921875 -1.734375q-1.484375 -1.734375 -1.53125 -4.6875l0 -1.53125zm2.3125 1.328125q0 2.171875 0.84375 3.421875q0.859375 1.234375 2.296875 1.234375q3.046875 0 3.140625 -4.40625l0 -1.578125q0 -2.171875 -0.859375 -3.421875q-0.859375 -1.25 -2.296875 -1.25q-1.421875 0 -2.28125 1.25q-0.84375 1.25 -0.84375 3.40625l0 1.34375zm18.739563 5.125q-1.15625 1.5 -3.34375 1.5q-1.921875 0 -2.90625 -1.3125q-0.96875 -1.328125 -0.984375 -3.859375l0 -9.171875l2.296875 0l0 9.0q0 3.296875 1.984375 3.296875q2.09375 0 2.890625 -1.875l0 -10.421875l2.296875 0l0 14.078125l-2.1875 0l-0.046875 -1.234375zm7.869995 -12.84375l0.0625 1.515625q1.34375 -1.78125 3.421875 -1.78125q3.734375 0 3.796875 4.984375l0 9.359375l-2.296875 0l0 -9.25q0 -1.65625 -0.5625 -2.34375q-0.546875 -0.703125 -1.640625 -0.703125q-0.859375 0 -1.546875 0.578125q-0.6875 0.5625 -1.109375 1.484375l0 10.234375l-2.296875 0l0 -14.078125l2.171875 0zm13.74231 -3.421875l0 3.421875l2.125 0l0 1.859375l-2.125 0l0 8.734375q0 0.828125 0.265625 1.265625q0.28125 0.421875 0.953125 0.421875q0.453125 0 0.921875 -0.15625l-0.03125 1.953125q-0.78125 0.265625 -1.59375 0.265625q-1.375 0 -2.09375 -0.96875q-0.703125 -0.984375 -0.703125 -2.765625l0 -8.75l-2.15625 0l0 -1.859375l2.15625 0l0 -3.421875l2.28125 0zm11.702698 13.890625q0 -0.734375 -0.5625 -1.265625q-0.5625 -0.546875 -2.15625 -1.25q-1.859375 -0.765625 -2.625 -1.3125q-0.765625 -0.546875 -1.140625 -1.25q-0.375 -0.703125 -0.375 -1.65625q0 -1.71875 1.25 -2.859375q1.265625 -1.140625 3.21875 -1.140625q2.046875 0 3.296875 1.203125q1.25 1.1875 1.25 3.0625l-2.28125 0q0 -0.953125 -0.640625 -1.609375q-0.640625 -0.671875 -1.625 -0.671875q-1.015625 0 -1.59375 0.53125q-0.578125 0.515625 -0.578125 1.40625q0 0.703125 0.421875 1.140625q0.421875 0.421875 2.03125 1.125q2.5625 1.0 3.484375 1.953125q0.9375 0.953125 0.9375 2.421875q0 1.84375 -1.265625 2.953125q-1.265625 1.09375 -3.390625 1.09375q-2.203125 0 -3.578125 -1.265625q-1.359375 -1.265625 -1.359375 -3.203125l2.328125 0q0.03125 1.171875 0.703125 1.84375q0.6875 0.65625 1.90625 0.65625q1.140625 0 1.734375 -0.515625q0.609375 -0.515625 0.609375 -1.390625z" fill-rule="nonzero"/></g><g filter="url(#shadowFilter-g3973a57c63_0_68.7)"><use xlink:href="#g3973a57c63_0_68.7" transform="matrix(1.0 0.0 0.0 1.0 0.0 2.0)"/></g><defs><filter id="shadowFilter-g3973a57c63_0_68.7" filterUnits="userSpaceOnUse"><feGaussianBlur in="SourceAlpha" stdDeviation="2.0" result="blur"/><feComponentTransfer in="blur" color-interpolation-filters="sRGB"><feFuncR type="linear" slope="0" intercept="0.6"/><feFuncG type="linear" slope="0" intercept="0.6"/><feFuncB type="linear" slope="0" intercept="0.6"/><feFuncA type="linear" slope="0.5" intercept="0"/></feComponentTransfer></filter></defs><g id="g3973a57c63_0_68.7"><path fill="#666666" d="m713.9833 137.11191l0 0c0 -1.8415985 1.4929199 -3.3345184 3.3345337 -3.3345184l196.26007 0c0.8843384 0 1.732544 0.3513031 2.3578491 0.97665405c0.6253662 0.62535095 0.9766846 1.4734955 0.9766846 2.3578644l0 14.370316c0 1.8416138 -1.4929199 3.3345337 -3.3345337 3.3345337l-196.26007 0l0 0c-1.8416138 0 -3.3345337 -1.4929199 -3.3345337 -3.3345337z" fill-rule="evenodd"/></g><path fill="#000000" fill-opacity="0.0" d="m766.693 127.00955l97.51184 0l0 38.015747l-97.51184 0z" fill-rule="evenodd"/><path fill="#ffffff" d="m793.2614 146.76393q0.515625 0 0.8125 -0.3125q0.3125 -0.328125 0.34375 -0.921875l0.984375 0q-0.03125 0.921875 -0.65625 1.53125q-0.609375 0.59375 -1.484375 0.59375q-1.1875 0 -1.8125 -0.734375q-0.609375 -0.75 -0.609375 -2.21875l0 -0.703125q0 -1.4375 0.609375 -2.171875q0.625 -0.75 1.796875 -0.75q0.96875 0 1.546875 0.609375q0.578125 0.609375 0.609375 1.6875l-0.984375 0q-0.03125 -0.703125 -0.34375 -1.046875q-0.296875 -0.359375 -0.828125 -0.359375q-0.6875 0 -1.03125 0.453125q-0.328125 0.453125 -0.34375 1.484375l0 0.8125q0 1.125 0.328125 1.59375q0.34375 0.453125 1.0625 0.453125zm3.1210938 -2.703125q0 -1.375 0.671875 -2.171875q0.671875 -0.8125 1.765625 -0.8125q1.109375 0 1.765625 0.78125q0.671875 0.78125 0.703125 2.140625l0 0.671875q0 1.375 -0.671875 2.1875q-0.671875 0.796875 -1.78125 0.796875q-1.109375 0 -1.78125 -0.78125q-0.65625 -0.78125 -0.671875 -2.109375l0 -0.703125zm1.03125 0.609375q0 0.96875 0.375 1.53125q0.390625 0.5625 1.046875 0.5625q1.375 0 1.40625 -1.984375l0 -0.71875q0 -0.96875 -0.390625 -1.53125q-0.375 -0.5625 -1.03125 -0.5625q-0.640625 0 -1.03125 0.5625q-0.375 0.5625 -0.375 1.53125l0 0.609375zm8.4453125 2.296875q-0.515625 0.6875 -1.515625 0.6875q-0.859375 0 -1.296875 -0.59375q-0.4375 -0.609375 -0.453125 -1.734375l0 -4.140625l1.03125 0l0 4.0625q0 1.484375 0.890625 1.484375q0.953125 0 1.3125 -0.84375l0 -4.703125l1.03125 0l0 6.34375l-0.984375 0l-0.015625 -0.5625zm3.5351562 -5.78125l0.03125 0.6875q0.609375 -0.796875 1.546875 -0.796875q1.671875 0 1.703125 2.234375l0 4.21875l-1.03125 0l0 -4.171875q0 -0.734375 -0.25 -1.046875q-0.25 -0.3125 -0.75 -0.3125q-0.390625 0 -0.703125 0.265625q-0.296875 0.25 -0.484375 0.65625l0 4.609375l-1.03125 0l0 -6.34375l0.96875 0zm6.1972656 -1.53125l0 1.53125l0.953125 0l0 0.84375l-0.953125 0l0 3.921875q0 0.375 0.109375 0.578125q0.125 0.1875 0.421875 0.1875q0.21875 0 0.421875 -0.0625l-0.015625 0.875q-0.34375 0.125 -0.71875 0.125q-0.609375 0 -0.9375 -0.4375q-0.3125 -0.453125 -0.3125 -1.25l0 -3.9375l-0.96875 0l0 -0.84375l0.96875 0l0 -1.53125l1.03125 0zm5.263672 6.25q0 -0.328125 -0.25 -0.5625q-0.25 -0.25 -0.984375 -0.578125q-0.828125 -0.34375 -1.171875 -0.578125q-0.34375 -0.25 -0.515625 -0.5625q-0.171875 -0.3125 -0.171875 -0.75q0 -0.78125 0.5625 -1.28125q0.578125 -0.515625 1.453125 -0.515625q0.921875 0 1.484375 0.546875q0.5625 0.53125 0.5625 1.375l-1.03125 0q0 -0.4375 -0.296875 -0.734375q-0.28125 -0.296875 -0.71875 -0.296875q-0.453125 0 -0.71875 0.234375q-0.265625 0.234375 -0.265625 0.640625q0 0.3125 0.1875 0.515625q0.203125 0.1875 0.921875 0.5q1.15625 0.453125 1.5625 0.890625q0.421875 0.421875 0.421875 1.078125q0 0.828125 -0.578125 1.328125q-0.5625 0.5 -1.515625 0.5q-0.984375 0 -1.609375 -0.5625q-0.609375 -0.578125 -0.609375 -1.453125l1.046875 0q0.015625 0.53125 0.3125 0.828125q0.3125 0.296875 0.859375 0.296875q0.515625 0 0.78125 -0.234375q0.28125 -0.234375 0.28125 -0.625zm2.4511719 1.0625q0 -0.28125 0.15625 -0.46875q0.171875 -0.1875 0.5 -0.1875q0.34375 0 0.515625 0.1875q0.171875 0.1875 0.171875 0.46875q0 0.265625 -0.171875 0.453125q-0.171875 0.171875 -0.515625 0.171875q-0.328125 0 -0.5 -0.171875q-0.15625 -0.1875 -0.15625 -0.453125zm2.8769531 -2.890625q0 -1.484375 0.53125 -2.234375q0.546875 -0.765625 1.59375 -0.765625q0.96875 0 1.46875 0.828125l0.046875 -0.71875l0.9375 0l0 6.40625q0 1.171875 -0.609375 1.796875q-0.59375 0.640625 -1.671875 0.640625q-0.46875 0 -1.0625 -0.234375q-0.578125 -0.234375 -0.859375 -0.578125l0.421875 -0.703125q0.640625 0.625 1.421875 0.625q1.296875 0 1.328125 -1.40625l0 -0.828125q-0.5 0.75 -1.4375 0.75q-0.984375 0 -1.53125 -0.734375q-0.546875 -0.75 -0.578125 -2.140625l0 -0.703125zm1.046875 0.59375q0 1.0625 0.3125 1.5625q0.3125 0.5 1.03125 0.5q0.765625 0 1.15625 -0.796875l0 -3.171875q-0.40625 -0.765625 -1.15625 -0.765625q-0.703125 0 -1.03125 0.5q-0.3125 0.5 -0.3125 1.53125l0 0.640625zm7.2871094 2.09375q0.515625 0 0.8125 -0.3125q0.3125 -0.328125 0.34375 -0.921875l0.984375 0q-0.03125 0.921875 -0.65625 1.53125q-0.609375 0.59375 -1.484375 0.59375q-1.1875 0 -1.8125 -0.734375q-0.609375 -0.75 -0.609375 -2.21875l0 -0.703125q0 -1.4375 0.609375 -2.171875q0.625 -0.75 1.796875 -0.75q0.96875 0 1.546875 0.609375q0.578125 0.609375 0.609375 1.6875l-0.984375 0q-0.03125 -0.703125 -0.34375 -1.046875q-0.296875 -0.359375 -0.828125 -0.359375q-0.6875 0 -1.03125 0.453125q-0.328125 0.453125 -0.34375 1.484375l0 0.8125q0 1.125 0.328125 1.59375q0.34375 0.453125 1.0625 0.453125zm4.6992188 -7.109375l0 1.53125l0.953125 0l0 0.84375l-0.953125 0l0 3.921875q0 0.375 0.109375 0.578125q0.125 0.1875 0.421875 0.1875q0.21875 0 0.421875 -0.0625l-0.015625 0.875q-0.34375 0.125 -0.71875 0.125q-0.609375 0 -0.9375 -0.4375q-0.3125 -0.453125 -0.3125 -1.25l0 -3.9375l-0.96875 0l0 -0.84375l0.96875 0l0 -1.53125l1.03125 0z" fill-rule="nonzero"/><g filter="url(#shadowFilter-g3973a57c63_0_68.8)"><use xlink:href="#g3973a57c63_0_68.8" transform="matrix(1.0 0.0 0.0 1.0 0.0 2.0)"/></g><defs><filter id="shadowFilter-g3973a57c63_0_68.8" filterUnits="userSpaceOnUse"><feGaussianBlur in="SourceAlpha" stdDeviation="2.0" result="blur"/><feComponentTransfer in="blur" color-interpolation-filters="sRGB"><feFuncR type="linear" slope="0" intercept="0.6"/><feFuncG type="linear" slope="0" intercept="0.6"/><feFuncB type="linear" slope="0" intercept="0.6"/><feFuncA type="linear" slope="0.5" intercept="0"/></feComponentTransfer></filter></defs><g id="g3973a57c63_0_68.8"><path fill="#b6d7a8" d="m187.3911 321.9776l0 0c0 -2.230713 1.8083496 -4.039093 4.0390778 -4.039093l194.85098 0c1.071228 0 2.0985718 0.42556763 2.8560486 1.1830444c0.7574768 0.7574768 1.1830139 1.7848206 1.1830139 2.8560486l0 67.29193c0 2.230713 -1.8083496 4.0390625 -4.0390625 4.0390625l-194.85098 0c-2.2307281 0 -4.0390778 -1.8083496 -4.0390778 -4.0390625z" fill-rule="evenodd"/><path fill="#ffffff" d="m261.31345 345.90903q0 3.875 -1.65625 5.984375q-1.65625 2.09375 -4.703125 2.09375q-2.921875 0 -4.625 -2.03125q-1.703125 -2.046875 -1.765625 -5.765625l0 -3.578125q0 -3.796875 1.671875 -5.953125q1.6875 -2.15625 4.6875 -2.15625q3.0 0 4.671875 2.078125q1.671875 2.0625 1.71875 5.875l0 3.453125zm-2.390625 -3.3125q0 -3.015625 -0.984375 -4.46875q-0.984375 -1.46875 -3.015625 -1.46875q-1.953125 0 -2.96875 1.484375q-1.0 1.484375 -1.015625 4.375l0 3.390625q0 2.90625 1.0 4.4375q1.015625 1.515625 3.015625 1.515625q2.0 0 2.96875 -1.40625q0.96875 -1.40625 1.0 -4.3125l0 -3.546875zm12.931244 9.890625q-1.15625 1.5 -3.34375 1.5q-1.921875 0 -2.90625 -1.3125q-0.96875 -1.328125 -0.984375 -3.859375l0 -9.171875l2.296875 0l0 9.0q0 3.296875 1.984375 3.296875q2.09375 0 2.890625 -1.875l0 -10.421875l2.296875 0l0 14.078125l-2.1875 0l-0.046875 -1.234375zm8.713715 -16.265625l0 3.421875l2.125 0l0 1.859375l-2.125 0l0 8.734375q0 0.828125 0.265625 1.265625q0.28125 0.421875 0.953125 0.421875q0.453125 0 0.921875 -0.15625l-0.03125 1.953125q-0.78125 0.265625 -1.59375 0.265625q-1.375 0 -2.09375 -0.96875q-0.703125 -0.984375 -0.703125 -2.765625l0 -8.75l-2.15625 0l0 -1.859375l2.15625 0l0 -3.421875l2.28125 0zm15.030792 11.140625q0 3.34375 -1.203125 4.984375q-1.203125 1.640625 -3.40625 1.640625q-2.109375 0 -3.265625 -1.609375l0 6.765625l-2.28125 0l0 -19.5l2.078125 0l0.125 1.5625q1.15625 -1.828125 3.3125 -1.828125q2.3125 0 3.453125 1.625q1.15625 1.609375 1.1875 4.8125l0 1.546875zm-2.28125 -1.3125q0 -2.375 -0.734375 -3.5q-0.734375 -1.125 -2.34375 -1.125q-1.65625 0 -2.515625 1.65625l0 7.328125q0.859375 1.609375 2.546875 1.609375q1.5625 0 2.296875 -1.125q0.734375 -1.125 0.75 -3.453125l0 -1.390625zm12.44278 6.4375q-1.15625 1.5 -3.34375 1.5q-1.921875 0 -2.90625 -1.3125q-0.96875 -1.328125 -0.984375 -3.859375l0 -9.171875l2.296875 0l0 9.0q0 3.296875 1.984375 3.296875q2.09375 0 2.890625 -1.875l0 -10.421875l2.296875 0l0 14.078125l-2.1875 0l-0.046875 -1.234375zm8.713715 -16.265625l0 3.421875l2.125 0l0 1.859375l-2.125 0l0 8.734375q0 0.828125 0.265625 1.265625q0.28125 0.421875 0.953125 0.421875q0.453125 0 0.921875 -0.15625l-0.03125 1.953125q-0.78125 0.265625 -1.59375 0.265625q-1.375 0 -2.09375 -0.96875q-0.703125 -0.984375 -0.703125 -2.765625l0 -8.75l-2.15625 0l0 -1.859375l2.15625 0l0 -3.421875l2.28125 0zm11.515137 17.5l-2.3125 0l0 -16.046875l-3.984375 1.78125l0 -2.1875l5.9375 -2.59375l0.359375 0l0 19.046875z" fill-rule="nonzero"/></g><g filter="url(#shadowFilter-g3973a57c63_0_68.9)"><use xlink:href="#g3973a57c63_0_68.9" transform="matrix(1.0 0.0 0.0 1.0 0.0 2.0)"/></g><defs><filter id="shadowFilter-g3973a57c63_0_68.9" filterUnits="userSpaceOnUse"><feGaussianBlur in="SourceAlpha" stdDeviation="2.0" result="blur"/><feComponentTransfer in="blur" color-interpolation-filters="sRGB"><feFuncR type="linear" slope="0" intercept="0.6"/><feFuncG type="linear" slope="0" intercept="0.6"/><feFuncB type="linear" slope="0" intercept="0.6"/><feFuncA type="linear" slope="0.5" intercept="0"/></feComponentTransfer></filter></defs><g id="g3973a57c63_0_68.9"><path fill="#6aa84f" d="m187.39108 375.221l0 0c0 -1.8416138 1.4929199 -3.3345337 3.3345337 -3.3345337l196.26007 0c0.8843689 0 1.7325134 0.35131836 2.3578796 0.97665405c0.6253357 0.6253662 0.97665405 1.4735107 0.97665405 2.3578796l0 14.3703c0 1.8416138 -1.4929199 3.3345337 -3.3345337 3.3345337l-196.26007 0l0 0c-1.8416138 0 -3.3345337 -1.4929199 -3.3345337 -3.3345337z" fill-rule="evenodd"/></g><path fill="#000000" fill-opacity="0.0" d="m225.90945 365.1223l125.88977 0l0 38.015747l-125.88977 0z" fill-rule="evenodd"/><path fill="#ffffff" d="m263.3807 382.17355q0 -1.375 0.671875 -2.171875q0.671875 -0.8125 1.765625 -0.8125q1.109375 0 1.765625 0.78125q0.671875 0.78125 0.703125 2.140625l0 0.671875q0 1.375 -0.671875 2.1875q-0.671875 0.796875 -1.78125 0.796875q-1.109375 0 -1.78125 -0.78125q-0.65625 -0.78125 -0.671875 -2.109375l0 -0.703125zm1.03125 0.609375q0 0.96875 0.375 1.53125q0.390625 0.5625 1.046875 0.5625q1.375 0 1.40625 -1.984375l0 -0.71875q0 -0.96875 -0.390625 -1.53125q-0.375 -0.5625 -1.03125 -0.5625q-0.640625 0 -1.03125 0.5625q-0.375 0.5625 -0.375 1.53125l0 0.609375zm8.4453125 2.296875q-0.515625 0.6875 -1.515625 0.6875q-0.859375 0 -1.296875 -0.59375q-0.4375 -0.609375 -0.453125 -1.734375l0 -4.140625l1.03125 0l0 4.0625q0 1.484375 0.890625 1.484375q0.953125 0 1.3125 -0.84375l0 -4.703125l1.03125 0l0 6.34375l-0.984375 0l-0.015625 -0.5625zm3.9257812 -7.3125l0 1.53125l0.953125 0l0 0.84375l-0.953125 0l0 3.921875q0 0.375 0.109375 0.578125q0.125 0.1875 0.421875 0.1875q0.21875 0 0.421875 -0.0625l-0.015625 0.875q-0.34375 0.125 -0.71875 0.125q-0.609375 0 -0.9375 -0.4375q-0.3125 -0.453125 -0.3125 -1.25l0 -3.9375l-0.96875 0l0 -0.84375l0.96875 0l0 -1.53125l1.03125 0zm6.763672 5.015625q0 1.5 -0.546875 2.25q-0.546875 0.734375 -1.53125 0.734375q-0.953125 0 -1.46875 -0.734375l0 3.046875l-1.03125 0l0 -8.78125l0.9375 0l0.046875 0.703125q0.53125 -0.8125 1.5 -0.8125q1.046875 0 1.5625 0.734375q0.515625 0.71875 0.53125 2.15625l0 0.703125zm-1.03125 -0.59375q0 -1.078125 -0.328125 -1.578125q-0.328125 -0.5 -1.0625 -0.5q-0.734375 0 -1.125 0.734375l0 3.296875q0.375 0.734375 1.140625 0.734375q0.703125 0 1.03125 -0.5q0.328125 -0.515625 0.34375 -1.5625l0 -0.625zm5.6054688 2.890625q-0.515625 0.6875 -1.515625 0.6875q-0.859375 0 -1.296875 -0.59375q-0.4375 -0.609375 -0.453125 -1.734375l0 -4.140625l1.03125 0l0 4.0625q0 1.484375 0.890625 1.484375q0.953125 0 1.3125 -0.84375l0 -4.703125l1.03125 0l0 6.34375l-0.984375 0l-0.015625 -0.5625zm3.9257812 -7.3125l0 1.53125l0.953125 0l0 0.84375l-0.953125 0l0 3.921875q0 0.375 0.109375 0.578125q0.125 0.1875 0.421875 0.1875q0.21875 0 0.421875 -0.0625l-0.015625 0.875q-0.34375 0.125 -0.71875 0.125q-0.609375 0 -0.9375 -0.4375q-0.3125 -0.453125 -0.3125 -1.25l0 -3.9375l-0.96875 0l0 -0.84375l0.96875 0l0 -1.53125l1.03125 0zm5.185547 7.875l-1.046875 0l0 -7.21875l-1.796875 0.796875l0 -0.984375l2.671875 -1.171875l0.171875 0l0 8.578125zm2.9863281 -0.5625q0 -0.28125 0.15625 -0.46875q0.171875 -0.1875 0.5 -0.1875q0.34375 0 0.515625 0.1875q0.171875 0.1875 0.171875 0.46875q0 0.265625 -0.171875 0.453125q-0.171875 0.171875 -0.515625 0.171875q-0.328125 0 -0.5 -0.171875q-0.15625 -0.1875 -0.15625 -0.453125zm4.455078 -7.3125l0 1.53125l0.953125 0l0 0.84375l-0.953125 0l0 3.921875q0 0.375 0.109375 0.578125q0.125 0.1875 0.421875 0.1875q0.21875 0 0.421875 -0.0625l-0.015625 0.875q-0.34375 0.125 -0.71875 0.125q-0.609375 0 -0.9375 -0.4375q-0.3125 -0.453125 -0.3125 -1.25l0 -3.9375l-0.96875 0l0 -0.84375l0.96875 0l0 -1.53125l1.03125 0zm4.013672 3.84375l1.078125 -2.3125l1.203125 0l-1.71875 3.140625l1.765625 3.203125l-1.1875 0l-1.125 -2.375l-1.125 2.375l-1.1875 0l1.75 -3.203125l-1.703125 -3.140625l1.1875 0l1.0625 2.3125zm4.798828 -3.84375l0 1.53125l0.953125 0l0 0.84375l-0.953125 0l0 3.921875q0 0.375 0.109375 0.578125q0.125 0.1875 0.421875 0.1875q0.21875 0 0.421875 -0.0625l-0.015625 0.875q-0.34375 0.125 -0.71875 0.125q-0.609375 0 -0.9375 -0.4375q-0.3125 -0.453125 -0.3125 -1.25l0 -3.9375l-0.96875 0l0 -0.84375l0.96875 0l0 -1.53125l1.03125 0z" fill-rule="nonzero"/><g filter="url(#shadowFilter-g3973a57c63_0_68.10)"><use xlink:href="#g3973a57c63_0_68.10" transform="matrix(1.0 0.0 0.0 1.0 0.0 2.0)"/></g><defs><filter id="shadowFilter-g3973a57c63_0_68.10" filterUnits="userSpaceOnUse"><feGaussianBlur in="SourceAlpha" stdDeviation="2.0" result="blur"/><feComponentTransfer in="blur" color-interpolation-filters="sRGB"><feFuncR type="linear" slope="0" intercept="0.6"/><feFuncG type="linear" slope="0" intercept="0.6"/><feFuncB type="linear" slope="0" intercept="0.6"/><feFuncA type="linear" slope="0.5" intercept="0"/></feComponentTransfer></filter></defs><g id="g3973a57c63_0_68.10"><path fill="#b7b7b7" d="m713.9833 180.13629l0 0c0 -2.2307281 1.8083496 -4.039093 4.0390625 -4.039093l194.85095 0c1.0712891 0 2.0986328 0.42555237 2.856079 1.1830292c0.7575073 0.7574768 1.1830444 1.7848206 1.1830444 2.8560638l0 67.2919c0 2.2307281 -1.8083496 4.039093 -4.0391235 4.039093l-194.85095 0c-2.230713 0 -4.0390625 -1.8083649 -4.0390625 -4.039093z" fill-rule="evenodd"/><path fill="#ffffff" d="m792.7319 204.45833l0 7.421875l-2.375 0l0 -18.953125l6.03125 0q2.640625 0 4.15625 1.59375q1.515625 1.578125 1.515625 4.203125q0 2.734375 -1.4375 4.21875q-1.4375 1.46875 -4.0625 1.515625l-3.828125 0zm0 -2.046875l3.65625 0q1.59375 0 2.4375 -0.9375q0.84375 -0.953125 0.84375 -2.734375q0 -1.703125 -0.875 -2.71875q-0.859375 -1.03125 -2.390625 -1.03125l-3.671875 0l0 7.421875zm14.554138 9.46875l-2.296875 0l0 -20.0l2.296875 0l0 20.0zm3.13562 -7.6875q0 -3.078125 1.484375 -4.859375q1.5 -1.796875 3.9375 -1.796875q2.453125 0 3.9375 1.75q1.5 1.734375 1.53125 4.75l0 1.484375q0 3.046875 -1.484375 4.84375q-1.484375 1.78125 -3.953125 1.78125q-2.4375 0 -3.921875 -1.734375q-1.484375 -1.734375 -1.53125 -4.6875l0 -1.53125zm2.3125 1.328125q0 2.171875 0.84375 3.421875q0.859375 1.234375 2.296875 1.234375q3.046875 0 3.140625 -4.40625l0 -1.578125q0 -2.171875 -0.859375 -3.421875q-0.859375 -1.25 -2.296875 -1.25q-1.421875 0 -2.28125 1.25q-0.84375 1.25 -0.84375 3.40625l0 1.34375zm14.567688 -11.140625l0 3.421875l2.125 0l0 1.859375l-2.125 0l0 8.734375q0 0.828125 0.265625 1.265625q0.28125 0.421875 0.953125 0.421875q0.453125 0 0.921875 -0.15625l-0.03125 1.953125q-0.78125 0.265625 -1.59375 0.265625q-1.375 0 -2.09375 -0.96875q-0.703125 -0.984375 -0.703125 -2.765625l0 -8.75l-2.15625 0l0 -1.859375l2.15625 0l0 -3.421875l2.28125 0zm11.702637 13.890625q0 -0.734375 -0.5625 -1.265625q-0.5625 -0.546875 -2.15625 -1.25q-1.859375 -0.765625 -2.625 -1.3125q-0.765625 -0.546875 -1.140625 -1.25q-0.375 -0.703125 -0.375 -1.65625q0 -1.71875 1.25 -2.859375q1.265625 -1.140625 3.21875 -1.140625q2.046875 0 3.296875 1.203125q1.25 1.1875 1.25 3.0625l-2.28125 0q0 -0.953125 -0.640625 -1.609375q-0.640625 -0.671875 -1.625 -0.671875q-1.015625 0 -1.59375 0.53125q-0.578125 0.515625 -0.578125 1.40625q0 0.703125 0.421875 1.140625q0.421875 0.421875 2.03125 1.125q2.5625 1.0 3.484375 1.953125q0.9375 0.953125 0.9375 2.421875q0 1.84375 -1.265625 2.953125q-1.265625 1.09375 -3.390625 1.09375q-2.203125 0 -3.578125 -1.265625q-1.359375 -1.265625 -1.359375 -3.203125l2.328125 0q0.03125 1.171875 0.703125 1.84375q0.6875 0.65625 1.90625 0.65625q1.140625 0 1.734375 -0.515625q0.609375 -0.515625 0.609375 -1.390625z" fill-rule="nonzero"/></g><g filter="url(#shadowFilter-g3973a57c63_0_68.11)"><use xlink:href="#g3973a57c63_0_68.11" transform="matrix(1.0 0.0 0.0 1.0 0.0 2.0)"/></g><defs><filter id="shadowFilter-g3973a57c63_0_68.11" filterUnits="userSpaceOnUse"><feGaussianBlur in="SourceAlpha" stdDeviation="2.0" result="blur"/><feComponentTransfer in="blur" color-interpolation-filters="sRGB"><feFuncR type="linear" slope="0" intercept="0.6"/><feFuncG type="linear" slope="0" intercept="0.6"/><feFuncB type="linear" slope="0" intercept="0.6"/><feFuncA type="linear" slope="0.5" intercept="0"/></feComponentTransfer></filter></defs><g id="g3973a57c63_0_68.11"><path fill="#666666" d="m713.9833 233.37968l0 0c0 -1.8415985 1.4929199 -3.3345184 3.3345337 -3.3345184l196.26007 0c0.8843384 0 1.732544 0.3513031 2.3578491 0.97665405c0.6253662 0.62535095 0.9766846 1.4734955 0.9766846 2.3578644l0 14.370316c0 1.8416138 -1.4929199 3.3345337 -3.3345337 3.3345337l-196.26007 0l0 0c-1.8416138 0 -3.3345337 -1.4929199 -3.3345337 -3.3345337z" fill-rule="evenodd"/></g><path fill="#000000" fill-opacity="0.0" d="m766.693 223.27733l97.51184 0l0 38.015762l-97.51184 0z" fill-rule="evenodd"/><path fill="#ffffff" d="m795.81903 240.45358l0 3.34375l-1.078125 0l0 -8.53125l2.71875 0q1.1875 0 1.859375 0.71875q0.6875 0.703125 0.6875 1.890625q0 1.234375 -0.65625 1.90625q-0.640625 0.65625 -1.8125 0.671875l-1.71875 0zm0 -0.921875l1.640625 0q0.71875 0 1.09375 -0.421875q0.375 -0.421875 0.375 -1.21875q0 -0.78125 -0.390625 -1.234375q-0.390625 -0.46875 -1.078125 -0.46875l-1.640625 0l0 3.34375zm6.5410156 4.265625l-1.03125 0l0 -9.0l1.03125 0l0 9.0zm1.4199219 -3.46875q0 -1.375 0.671875 -2.171875q0.671875 -0.8125 1.765625 -0.8125q1.109375 0 1.765625 0.78125q0.671875 0.78125 0.703125 2.140625l0 0.671875q0 1.375 -0.671875 2.1875q-0.671875 0.796875 -1.78125 0.796875q-1.109375 0 -1.78125 -0.78125q-0.65625 -0.78125 -0.671875 -2.109375l0 -0.703125zm1.03125 0.609375q0 0.96875 0.375 1.53125q0.390625 0.5625 1.046875 0.5625q1.375 0 1.40625 -1.984375l0 -0.71875q0 -0.96875 -0.390625 -1.53125q-0.375 -0.5625 -1.03125 -0.5625q-0.640625 0 -1.03125 0.5625q-0.375 0.5625 -0.375 1.53125l0 0.609375zm6.5703125 -5.015625l0 1.53125l0.953125 0l0 0.84375l-0.953125 0l0 3.921875q0 0.375 0.109375 0.578125q0.125 0.1875 0.421875 0.1875q0.21875 0 0.421875 -0.0625l-0.015625 0.875q-0.34375 0.125 -0.71875 0.125q-0.609375 0 -0.9375 -0.4375q-0.3125 -0.453125 -0.3125 -1.25l0 -3.9375l-0.96875 0l0 -0.84375l0.96875 0l0 -1.53125l1.03125 0zm5.263672 6.25q0 -0.328125 -0.25 -0.5625q-0.25 -0.25 -0.984375 -0.578125q-0.828125 -0.34375 -1.171875 -0.578125q-0.34375 -0.25 -0.515625 -0.5625q-0.171875 -0.3125 -0.171875 -0.75q0 -0.78125 0.5625 -1.28125q0.578125 -0.515625 1.453125 -0.515625q0.921875 0 1.484375 0.546875q0.5625 0.53125 0.5625 1.375l-1.03125 0q0 -0.4375 -0.296875 -0.734375q-0.28125 -0.296875 -0.71875 -0.296875q-0.453125 0 -0.71875 0.234375q-0.265625 0.234375 -0.265625 0.640625q0 0.3125 0.1875 0.515625q0.203125 0.1875 0.921875 0.5q1.15625 0.453125 1.5625 0.890625q0.421875 0.421875 0.421875 1.078125q0 0.828125 -0.578125 1.328125q-0.5625 0.5 -1.515625 0.5q-0.984375 0 -1.609375 -0.5625q-0.609375 -0.578125 -0.609375 -1.453125l1.046875 0q0.015625 0.53125 0.3125 0.828125q0.3125 0.296875 0.859375 0.296875q0.515625 0 0.78125 -0.234375q0.28125 -0.234375 0.28125 -0.625zm2.4511719 1.0625q0 -0.28125 0.15625 -0.46875q0.171875 -0.1875 0.5 -0.1875q0.34375 0 0.515625 0.1875q0.171875 0.1875 0.171875 0.46875q0 0.265625 -0.171875 0.453125q-0.171875 0.171875 -0.515625 0.171875q-0.328125 0 -0.5 -0.171875q-0.15625 -0.1875 -0.15625 -0.453125zm7.673828 -2.296875q0 1.5 -0.546875 2.25q-0.546875 0.734375 -1.53125 0.734375q-0.953125 0 -1.46875 -0.734375l0 3.046875l-1.03125 0l0 -8.78125l0.9375 0l0.046875 0.703125q0.53125 -0.8125 1.5 -0.8125q1.046875 0 1.5625 0.734375q0.515625 0.71875 0.53125 2.15625l0 0.703125zm-1.03125 -0.59375q0 -1.078125 -0.328125 -1.578125q-0.328125 -0.5 -1.0625 -0.5q-0.734375 0 -1.125 0.734375l0 3.296875q0.375 0.734375 1.140625 0.734375q0.703125 0 1.03125 -0.5q0.328125 -0.515625 0.34375 -1.5625l0 -0.625zm2.1523438 0q0 -1.46875 0.546875 -2.234375q0.546875 -0.765625 1.5625 -0.765625q0.921875 0 1.421875 0.734375l0 -3.28125l1.046875 0l0 9.0l-0.953125 0l-0.0625 -0.6875q-0.5 0.8125 -1.453125 0.8125q-0.984375 0 -1.546875 -0.765625q-0.5625 -0.765625 -0.5625 -2.171875l0 -0.640625zm1.03125 0.59375q0 1.0625 0.3125 1.5625q0.328125 0.5 1.03125 0.5q0.78125 0 1.15625 -0.78125l0 -3.203125q-0.390625 -0.75 -1.140625 -0.75q-0.71875 0 -1.046875 0.5q-0.3125 0.5 -0.3125 1.53125l0 0.640625zm5.59375 2.859375l0 -5.5l-0.828125 0l0 -0.84375l0.828125 0l0 -0.734375q0.015625 -0.96875 0.484375 -1.5q0.46875 -0.546875 1.328125 -0.546875q0.3125 0 0.640625 0.09375l-0.0625 0.890625q-0.21875 -0.0625 -0.46875 -0.0625q-0.890625 0 -0.890625 1.265625l0 0.59375l1.09375 0l0 0.84375l-1.09375 0l0 5.5l-1.03125 0z" fill-rule="nonzero"/><path fill="#000000" fill-opacity="0.0" d="m916.9124 117.514465l25.000671 0l0 283.81104l-179.58337 0" fill-rule="evenodd"/><path stroke="#666666" stroke-width="3.0" stroke-linejoin="round" stroke-linecap="butt" d="m916.9124 117.514465l25.000671 0l0 283.81104l-161.58337 0" fill-rule="evenodd"/><path fill="#666666" stroke="#666666" stroke-width="3.0" stroke-linecap="butt" d="m780.3297 396.3703l-13.614258 4.9552l13.614258 4.9552z" fill-rule="evenodd"/><path fill="#000000" fill-opacity="0.0" d="m235.74724 165.6481c19.526001 0 29.288223 0.01574707 39.051987 0.03149414c9.763794 0.01574707 19.529144 0.0315094 39.058258 0.0315094" fill-rule="evenodd"/><path stroke="#666666" stroke-width="3.0" stroke-linejoin="round" stroke-linecap="butt" d="m235.74724 165.6481c19.526001 0 29.288223 0.01576233 39.051987 0.0315094c4.881897 0.007873535 9.764191 0.01574707 15.867126 0.021652222l5.1911316 0.003616333" fill-rule="evenodd"/><path fill="#666666" stroke="#666666" stroke-width="3.0" stroke-linecap="butt" d="m295.85574 170.66008l13.616028 -4.9505005l-13.612579 -4.9599z" fill-rule="evenodd"/><g filter="url(#shadowFilter-g3973a57c63_0_68.12)"><use xlink:href="#g3973a57c63_0_68.12" transform="matrix(1.0 0.0 0.0 1.0 0.0 2.0)"/></g><defs><filter id="shadowFilter-g3973a57c63_0_68.12" filterUnits="userSpaceOnUse"><feGaussianBlur in="SourceAlpha" stdDeviation="2.0" result="blur"/><feComponentTransfer in="blur" color-interpolation-filters="sRGB"><feFuncR type="linear" slope="0" intercept="0.6"/><feFuncG type="linear" slope="0" intercept="0.6"/><feFuncB type="linear" slope="0" intercept="0.6"/><feFuncA type="linear" slope="0.5" intercept="0"/></feComponentTransfer></filter></defs><g id="g3973a57c63_0_68.12"><path fill="#b6d7a8" d="m187.39069 412.44116l0 0c0 -2.2307434 1.8083649 -4.039093 4.039093 -4.039093l194.85095 0c1.071228 0 2.0986023 0.4255371 2.856079 1.1830139c0.7574768 0.7574768 1.1830139 1.7848511 1.1830139 2.856079l0 67.2919c0 2.2307434 -1.8083496 4.039093 -4.039093 4.039093l-194.85095 0c-2.2307281 0 -4.039093 -1.8083496 -4.039093 -4.039093z" fill-rule="evenodd"/><path fill="#ffffff" d="m261.31305 436.3726q0 3.875 -1.65625 5.984375q-1.65625 2.09375 -4.703125 2.09375q-2.921875 0 -4.625 -2.03125q-1.703125 -2.046875 -1.765625 -5.765625l0 -3.578125q0 -3.796875 1.671875 -5.953125q1.6875 -2.15625 4.6875 -2.15625q3.0 0 4.671875 2.078125q1.671875 2.0625 1.71875 5.875l0 3.453125zm-2.390625 -3.3125q0 -3.015625 -0.984375 -4.46875q-0.984375 -1.46875 -3.015625 -1.46875q-1.953125 0 -2.96875 1.484375q-1.0 1.484375 -1.015625 4.375l0 3.390625q0 2.90625 1.0 4.4375q1.015625 1.515625 3.015625 1.515625q2.0 0 2.96875 -1.40625q0.96875 -1.40625 1.0 -4.3125l0 -3.546875zm12.931244 9.890625q-1.15625 1.5 -3.34375 1.5q-1.921875 0 -2.90625 -1.3125q-0.96875 -1.328125 -0.984375 -3.859375l0 -9.171875l2.296875 0l0 9.0q0 3.296875 1.984375 3.296875q2.09375 0 2.890625 -1.875l0 -10.421875l2.296875 0l0 14.078125l-2.1875 0l-0.046875 -1.234375zm8.713715 -16.265625l0 3.421875l2.125 0l0 1.859375l-2.125 0l0 8.734375q0 0.828125 0.265625 1.265625q0.28125 0.421875 0.953125 0.421875q0.453125 0 0.921875 -0.15625l-0.03125 1.953125q-0.78125 0.265625 -1.59375 0.265625q-1.375 0 -2.09375 -0.96875q-0.703125 -0.984375 -0.703125 -2.765625l0 -8.75l-2.15625 0l0 -1.859375l2.15625 0l0 -3.421875l2.28125 0zm15.030762 11.140625q0 3.34375 -1.203125 4.984375q-1.203125 1.640625 -3.40625 1.640625q-2.109375 0 -3.265625 -1.609375l0 6.765625l-2.28125 0l0 -19.5l2.078125 0l0.125 1.5625q1.15625 -1.828125 3.3125 -1.828125q2.3125 0 3.453125 1.625q1.15625 1.609375 1.1875 4.8125l0 1.546875zm-2.28125 -1.3125q0 -2.375 -0.734375 -3.5q-0.734375 -1.125 -2.34375 -1.125q-1.65625 0 -2.515625 1.65625l0 7.328125q0.859375 1.609375 2.546875 1.609375q1.5625 0 2.296875 -1.125q0.734375 -1.125 0.75 -3.453125l0 -1.390625zm12.44278 6.4375q-1.15625 1.5 -3.34375 1.5q-1.921875 0 -2.90625 -1.3125q-0.96875 -1.328125 -0.984375 -3.859375l0 -9.171875l2.296875 0l0 9.0q0 3.296875 1.984375 3.296875q2.09375 0 2.890625 -1.875l0 -10.421875l2.296875 0l0 14.078125l-2.1875 0l-0.046875 -1.234375zm8.713715 -16.265625l0 3.421875l2.125 0l0 1.859375l-2.125 0l0 8.734375q0 0.828125 0.265625 1.265625q0.28125 0.421875 0.953125 0.421875q0.453125 0 0.921875 -0.15625l-0.03125 1.953125q-0.78125 0.265625 -1.59375 0.265625q-1.375 0 -2.09375 -0.96875q-0.703125 -0.984375 -0.703125 -2.765625l0 -8.75l-2.15625 0l0 -1.859375l2.15625 0l0 -3.421875l2.28125 0zm15.265167 17.5l-10.609375 0l0 -1.734375l5.40625 -7.15625q1.21875 -1.65625 1.6875 -2.71875q0.484375 -1.0625 0.484375 -2.234375q0 -1.515625 -0.703125 -2.453125q-0.703125 -0.9375 -1.84375 -0.9375q-1.4375 0 -2.234375 1.0q-0.78125 1.0 -0.78125 2.875l-2.3125 0q0 -2.625 1.4375 -4.234375q1.4375 -1.625 3.890625 -1.625q2.265625 0 3.5625 1.390625q1.3125 1.390625 1.3125 3.6875q0 2.8125 -2.9375 6.65625l-4.21875 5.515625l7.859375 0l0 1.96875z" fill-rule="nonzero"/></g><g filter="url(#shadowFilter-g3973a57c63_0_68.13)"><use xlink:href="#g3973a57c63_0_68.13" transform="matrix(1.0 0.0 0.0 1.0 0.0 2.0)"/></g><defs><filter id="shadowFilter-g3973a57c63_0_68.13" filterUnits="userSpaceOnUse"><feGaussianBlur in="SourceAlpha" stdDeviation="2.0" result="blur"/><feComponentTransfer in="blur" color-interpolation-filters="sRGB"><feFuncR type="linear" slope="0" intercept="0.6"/><feFuncG type="linear" slope="0" intercept="0.6"/><feFuncB type="linear" slope="0" intercept="0.6"/><feFuncA type="linear" slope="0.5" intercept="0"/></feComponentTransfer></filter></defs><g id="g3973a57c63_0_68.13"><path fill="#6aa84f" d="m187.39069 465.68457l0 0c0 -1.8416138 1.4929199 -3.3345337 3.3345337 -3.3345337l196.26007 0c0.8843689 0 1.7325134 0.35131836 2.3578796 0.97665405c0.6253357 0.6253357 0.97665405 1.4735107 0.97665405 2.3578796l0 14.3703c0 1.8416138 -1.4929199 3.3345337 -3.3345337 3.3345337l-196.26007 0l0 0c-1.8416138 0 -3.3345337 -1.4929199 -3.3345337 -3.3345337z" fill-rule="evenodd"/></g><path fill="#000000" fill-opacity="0.0" d="m217.702 455.58392l142.29922 0l0 38.015747l-142.29922 0z" fill-rule="evenodd"/><path fill="#ffffff" d="m263.37796 472.63516q0 -1.375 0.671875 -2.171875q0.671875 -0.8125 1.765625 -0.8125q1.109375 0 1.765625 0.78125q0.671875 0.78125 0.703125 2.140625l0 0.671875q0 1.375 -0.671875 2.1875q-0.671875 0.796875 -1.78125 0.796875q-1.109375 0 -1.78125 -0.78125q-0.65625 -0.78125 -0.671875 -2.109375l0 -0.703125zm1.03125 0.609375q0 0.96875 0.375 1.53125q0.390625 0.5625 1.046875 0.5625q1.375 0 1.40625 -1.984375l0 -0.71875q0 -0.96875 -0.390625 -1.53125q-0.375 -0.5625 -1.03125 -0.5625q-0.640625 0 -1.03125 0.5625q-0.375 0.5625 -0.375 1.53125l0 0.609375zm8.4453125 2.296875q-0.515625 0.6875 -1.515625 0.6875q-0.859375 0 -1.296875 -0.59375q-0.4375 -0.609375 -0.453125 -1.734375l0 -4.140625l1.03125 0l0 4.0625q0 1.484375 0.890625 1.484375q0.953125 0 1.3125 -0.84375l0 -4.703125l1.03125 0l0 6.34375l-0.984375 0l-0.015625 -0.5625zm3.9257812 -7.3125l0 1.53125l0.953125 0l0 0.84375l-0.953125 0l0 3.921875q0 0.375 0.109375 0.578125q0.125 0.1875 0.421875 0.1875q0.21875 0 0.421875 -0.0625l-0.015625 0.875q-0.34375 0.125 -0.71875 0.125q-0.609375 0 -0.9375 -0.4375q-0.3125 -0.453125 -0.3125 -1.25l0 -3.9375l-0.96875 0l0 -0.84375l0.96875 0l0 -1.53125l1.03125 0zm6.763672 5.015625q0 1.5 -0.546875 2.25q-0.546875 0.734375 -1.53125 0.734375q-0.953125 0 -1.46875 -0.734375l0 3.046875l-1.03125 0l0 -8.78125l0.9375 0l0.046875 0.703125q0.53125 -0.8125 1.5 -0.8125q1.046875 0 1.5625 0.734375q0.515625 0.71875 0.53125 2.15625l0 0.703125zm-1.03125 -0.59375q0 -1.078125 -0.328125 -1.578125q-0.328125 -0.5 -1.0625 -0.5q-0.734375 0 -1.125 0.734375l0 3.296875q0.375 0.734375 1.140625 0.734375q0.703125 0 1.03125 -0.5q0.328125 -0.515625 0.34375 -1.5625l0 -0.625zm5.6054688 2.890625q-0.515625 0.6875 -1.515625 0.6875q-0.859375 0 -1.296875 -0.59375q-0.4375 -0.609375 -0.453125 -1.734375l0 -4.140625l1.03125 0l0 4.0625q0 1.484375 0.890625 1.484375q0.953125 0 1.3125 -0.84375l0 -4.703125l1.03125 0l0 6.34375l-0.984375 0l-0.015625 -0.5625zm3.9257812 -7.3125l0 1.53125l0.953125 0l0 0.84375l-0.953125 0l0 3.921875q0 0.375 0.109375 0.578125q0.125 0.1875 0.421875 0.1875q0.21875 0 0.421875 -0.0625l-0.015625 0.875q-0.34375 0.125 -0.71875 0.125q-0.609375 0 -0.9375 -0.4375q-0.3125 -0.453125 -0.3125 -1.25l0 -3.9375l-0.96875 0l0 -0.84375l0.96875 0l0 -1.53125l1.03125 0zm6.857422 7.875l-4.765625 0l0 -0.78125l2.4375 -3.21875q0.546875 -0.75 0.75 -1.21875q0.21875 -0.484375 0.21875 -1.015625q0 -0.6875 -0.3125 -1.109375q-0.3125 -0.421875 -0.828125 -0.421875q-0.65625 0 -1.015625 0.453125q-0.34375 0.453125 -0.34375 1.296875l-1.046875 0q0 -1.1875 0.640625 -1.90625q0.65625 -0.734375 1.765625 -0.734375q1.015625 0 1.59375 0.625q0.59375 0.625 0.59375 1.671875q0 1.265625 -1.3125 2.984375l-1.90625 2.484375l3.53125 0l0 0.890625zm1.3144531 -0.5625q0 -0.28125 0.15625 -0.46875q0.171875 -0.1875 0.5 -0.1875q0.34375 0 0.515625 0.1875q0.171875 0.1875 0.171875 0.46875q0 0.265625 -0.171875 0.453125q-0.171875 0.171875 -0.515625 0.171875q-0.328125 0 -0.5 -0.171875q-0.15625 -0.1875 -0.15625 -0.453125zm4.455078 -7.3125l0 1.53125l0.953125 0l0 0.84375l-0.953125 0l0 3.921875q0 0.375 0.109375 0.578125q0.125 0.1875 0.421875 0.1875q0.21875 0 0.421875 -0.0625l-0.015625 0.875q-0.34375 0.125 -0.71875 0.125q-0.609375 0 -0.9375 -0.4375q-0.3125 -0.453125 -0.3125 -1.25l0 -3.9375l-0.96875 0l0 -0.84375l0.96875 0l0 -1.53125l1.03125 0zm4.013672 3.84375l1.078125 -2.3125l1.203125 0l-1.71875 3.140625l1.765625 3.203125l-1.1875 0l-1.125 -2.375l-1.125 2.375l-1.1875 0l1.75 -3.203125l-1.703125 -3.140625l1.1875 0l1.0625 2.3125zm4.798828 -3.84375l0 1.53125l0.953125 0l0 0.84375l-0.953125 0l0 3.921875q0 0.375 0.109375 0.578125q0.125 0.1875 0.421875 0.1875q0.21875 0 0.421875 -0.0625l-0.015625 0.875q-0.34375 0.125 -0.71875 0.125q-0.609375 0 -0.9375 -0.4375q-0.3125 -0.453125 -0.3125 -1.25l0 -3.9375l-0.96875 0l0 -0.84375l0.96875 0l0 -1.53125l1.03125 0z" fill-rule="nonzero"/><path fill="#000000" fill-opacity="0.0" d="m635.8358 165.6457l39.073975 0l0 -48.125984l39.06775 0" fill-rule="evenodd"/><path stroke="#666666" stroke-width="3.0" stroke-linejoin="round" stroke-linecap="butt" d="m635.8358 165.6457l39.073975 0l0 -48.125977l21.067749 0" fill-rule="evenodd"/><path fill="#666666" stroke="#666666" stroke-width="3.0" stroke-linecap="butt" d="m695.97754 122.47492l13.614258 -4.9551926l-13.614258 -4.9552z" fill-rule="evenodd"/><path fill="#000000" fill-opacity="0.0" d="m635.8358 165.6457l39.073975 0l0 48.125977l39.06775 0" fill-rule="evenodd"/><path stroke="#666666" stroke-width="3.0" stroke-linejoin="round" stroke-linecap="butt" d="m635.8358 165.6457l39.073975 0l0 48.12599l21.067749 0" fill-rule="evenodd"/><path fill="#666666" stroke="#666666" stroke-width="3.0" stroke-linecap="butt" d="m695.97754 218.7269l13.614258 -4.9552l-13.614258 -4.9552z" fill-rule="evenodd"/><path fill="#000000" fill-opacity="0.0" d="m440.33548 401.30975l-25.007385 0l0 -45.700806l-25.008362 0" fill-rule="evenodd"/><path stroke="#666666" stroke-width="3.0" stroke-linejoin="round" stroke-linecap="butt" d="m440.33548 401.30975l-25.007385 0l0 -45.700775l-7.008362 0" fill-rule="evenodd"/><path fill="#666666" stroke="#666666" stroke-width="3.0" stroke-linecap="butt" d="m408.3197 350.65378l-13.614288 4.9552l13.614288 4.9551697z" fill-rule="evenodd"/><path fill="#000000" fill-opacity="0.0" d="m440.33548 401.30975l-25.007874 0l0 44.787384l-25.007874 0" fill-rule="evenodd"/><path stroke="#666666" stroke-width="3.0" stroke-linejoin="round" stroke-linecap="butt" d="m440.33548 401.30975l-25.007874 0l0 44.787415l-7.0078735 0" fill-rule="evenodd"/><path fill="#666666" stroke="#666666" stroke-width="3.0" stroke-linecap="butt" d="m408.3197 441.14197l-13.614288 4.9552l13.614288 4.9551697z" fill-rule="evenodd"/><g filter="url(#shadowFilter-g3973a57c63_0_68.14)"><use xlink:href="#g3973a57c63_0_68.14" transform="matrix(1.0 0.0 0.0 1.0 0.0 2.0)"/></g><defs><filter id="shadowFilter-g3973a57c63_0_68.14" filterUnits="userSpaceOnUse"><feGaussianBlur in="SourceAlpha" stdDeviation="2.0" result="blur"/><feComponentTransfer in="blur" color-interpolation-filters="sRGB"><feFuncR type="linear" slope="0" intercept="0.6"/><feFuncG type="linear" slope="0" intercept="0.6"/><feFuncB type="linear" slope="0" intercept="0.6"/><feFuncA type="linear" slope="0.5" intercept="0"/></feComponentTransfer></filter></defs><g id="g3973a57c63_0_68.14"><path fill="#6d9eeb" d="m440.33548 367.6638l0 0c0 -2.230713 1.8083496 -4.039093 4.0390625 -4.039093l313.9061 0c1.071228 0 2.0985718 0.42556763 2.856079 1.1830444c0.7574463 0.7574768 1.1829834 1.7848206 1.1829834 2.8560486l0 67.29193c0 2.230713 -1.8083496 4.0390625 -4.0390625 4.0390625l-313.9061 0c-2.230713 0 -4.0390625 -1.8083496 -4.0390625 -4.0390625z" fill-rule="evenodd"/><path fill="#ffffff" d="m541.1822 394.4546l-6.390625 0l-1.484375 4.953125l-2.4375 0l6.109375 -18.953125l2.03125 0l6.125 18.953125l-2.453125 0l-1.5 -4.953125zm-5.765625 -2.046875l5.15625 0l-2.59375 -8.625l-2.5625 8.625zm14.139832 -7.078125l0.0625 1.515625q1.34375 -1.78125 3.421875 -1.78125q3.734375 0 3.796875 4.984375l0 9.359375l-2.296875 0l0 -9.25q0 -1.65625 -0.5625 -2.34375q-0.546875 -0.703125 -1.640625 -0.703125q-0.859375 0 -1.546875 0.578125q-0.6875 0.5625 -1.109375 1.484375l0 10.234375l-2.296875 0l0 -14.078125l2.171875 0zm17.976685 14.078125q-0.203125 -0.453125 -0.296875 -1.53125q-1.234375 1.796875 -3.125 1.796875q-1.921875 0 -3.0 -1.078125q-1.0625 -1.078125 -1.0625 -3.03125q0 -2.140625 1.453125 -3.40625q1.46875 -1.265625 4.0 -1.28125l1.6875 0l0 -1.5q0 -1.265625 -0.5625 -1.796875q-0.546875 -0.53125 -1.703125 -0.53125q-1.03125 0 -1.6875 0.625q-0.65625 0.609375 -0.65625 1.5625l-2.296875 0q0 -1.09375 0.640625 -2.0625q0.640625 -0.984375 1.71875 -1.546875q1.078125 -0.5625 2.40625 -0.5625q2.15625 0 3.28125 1.078125q1.125 1.0625 1.15625 3.125l0 7.109375q0.015625 1.625 0.4375 2.828125l0 0.203125l-2.390625 0zm-3.078125 -1.828125q0.84375 0 1.609375 -0.46875q0.78125 -0.46875 1.125 -1.171875l0 -3.359375l-1.296875 0q-1.640625 0.015625 -2.59375 0.734375q-0.953125 0.703125 -0.953125 1.984375q0 1.1875 0.484375 1.734375q0.484375 0.546875 1.625 0.546875zm11.080994 1.828125l-2.296875 0l0 -20.0l2.296875 0l0 20.0zm7.47937 -3.828125l2.5625 -10.25l2.4375 0l-4.609375 16.0625q-0.515625 1.8125 -1.46875 2.75q-0.953125 0.953125 -2.15625 0.953125q-0.46875 0 -1.203125 -0.203125l0 -1.953125l0.515625 0.046875q1.0 0 1.5625 -0.484375q0.5625 -0.46875 0.921875 -1.640625l0.453125 -1.5625l-4.140625 -13.96875l2.515625 0l2.609375 10.25zm14.086792 0.21875q0 -0.734375 -0.5625 -1.265625q-0.5625 -0.546875 -2.15625 -1.25q-1.859375 -0.765625 -2.625 -1.3125q-0.765625 -0.546875 -1.140625 -1.25q-0.375 -0.703125 -0.375 -1.65625q0 -1.71875 1.25 -2.859375q1.265625 -1.140625 3.21875 -1.140625q2.046875 0 3.296875 1.203125q1.25 1.1875 1.25 3.0625l-2.28125 0q0 -0.953125 -0.640625 -1.609375q-0.640625 -0.671875 -1.625 -0.671875q-1.015625 0 -1.59375 0.53125q-0.578125 0.515625 -0.578125 1.40625q0 0.703125 0.421875 1.140625q0.421875 0.421875 2.03125 1.125q2.5625 1.0 3.484375 1.953125q0.9375 0.953125 0.9375 2.421875q0 1.84375 -1.265625 2.953125q-1.265625 1.09375 -3.390625 1.09375q-2.203125 0 -3.578125 -1.265625q-1.359375 -1.265625 -1.359375 -3.203125l2.328125 0q0.03125 1.171875 0.703125 1.84375q0.6875 0.65625 1.90625 0.65625q1.140625 0 1.734375 -0.515625q0.609375 -0.515625 0.609375 -1.390625zm7.7843018 3.609375l-2.296875 0l0 -14.078125l2.296875 0l0 14.078125zm0.1875 -17.8125q0 0.578125 -0.328125 0.96875q-0.328125 0.390625 -0.984375 0.390625q-0.65625 0 -0.984375 -0.390625q-0.328125 -0.390625 -0.328125 -0.96875q0 -0.59375 0.328125 -1.0q0.328125 -0.40625 0.96875 -0.40625q0.65625 0 0.984375 0.421875q0.34375 0.40625 0.34375 0.984375zm10.276306 14.203125q0 -0.734375 -0.5625 -1.265625q-0.5625 -0.546875 -2.15625 -1.25q-1.859375 -0.765625 -2.625 -1.3125q-0.765625 -0.546875 -1.140625 -1.25q-0.375 -0.703125 -0.375 -1.65625q0 -1.71875 1.25 -2.859375q1.265625 -1.140625 3.21875 -1.140625q2.046875 0 3.296875 1.203125q1.25 1.1875 1.25 3.0625l-2.28125 0q0 -0.953125 -0.640625 -1.609375q-0.640625 -0.671875 -1.625 -0.671875q-1.015625 0 -1.59375 0.53125q-0.578125 0.515625 -0.578125 1.40625q0 0.703125 0.421875 1.140625q0.421875 0.421875 2.03125 1.125q2.5625 1.0 3.484375 1.953125q0.9375 0.953125 0.9375 2.421875q0 1.84375 -1.265625 2.953125q-1.265625 1.09375 -3.390625 1.09375q-2.203125 0 -3.578125 -1.265625q-1.359375 -1.265625 -1.359375 -3.203125l2.328125 0q0.03125 1.171875 0.703125 1.84375q0.6875 0.65625 1.90625 0.65625q1.140625 0 1.734375 -0.515625q0.609375 -0.515625 0.609375 -1.390625zm20.013672 -1.1875q0 -1.40625 -0.78125 -2.15625q-0.765625 -0.765625 -2.765625 -1.484375q-2.0 -0.71875 -3.0625 -1.5q-1.0625 -0.78125 -1.59375 -1.796875q-0.53125 -1.015625 -0.53125 -2.3125q0 -2.25 1.5 -3.703125q1.515625 -1.46875 3.953125 -1.46875q1.65625 0 2.953125 0.75q1.3125 0.75 2.015625 2.078125q0.703125 1.328125 0.703125 2.921875l-2.390625 0q0 -1.765625 -0.859375 -2.71875q-0.84375 -0.96875 -2.421875 -0.96875q-1.453125 0 -2.25 0.8125q-0.78125 0.796875 -0.78125 2.265625q0 1.1875 0.859375 2.0q0.859375 0.8125 2.640625 1.4375q2.8125 0.9375 4.015625 2.296875q1.203125 1.34375 1.203125 3.53125q0 2.296875 -1.5 3.6875q-1.5 1.390625 -4.078125 1.390625q-1.65625 0 -3.0625 -0.71875q-1.390625 -0.734375 -2.1875 -2.03125q-0.796875 -1.3125 -0.796875 -3.015625l2.390625 0q0 1.765625 0.984375 2.75q0.984375 0.96875 2.671875 0.96875q1.578125 0 2.375 -0.796875q0.796875 -0.8125 0.796875 -2.21875zm8.215942 -12.703125l0 3.421875l2.125 0l0 1.859375l-2.125 0l0 8.734375q0 0.828125 0.265625 1.265625q0.28125 0.421875 0.953125 0.421875q0.453125 0 0.921875 -0.15625l-0.03125 1.953125q-0.78125 0.265625 -1.59375 0.265625q-1.375 0 -2.09375 -0.96875q-0.703125 -0.984375 -0.703125 -2.765625l0 -8.75l-2.15625 0l0 -1.859375l2.15625 0l0 -3.421875l2.28125 0zm9.890198 17.765625q-2.625 0 -4.03125 -1.5625q-1.40625 -1.578125 -1.4375 -4.609375l0 -1.703125q0 -3.15625 1.375 -4.9375q1.375 -1.796875 3.84375 -1.796875q2.46875 0 3.6875 1.578125q1.234375 1.578125 1.25 4.90625l0 1.5l-7.859375 0l0 0.328125q0 2.265625 0.84375 3.296875q0.859375 1.03125 2.46875 1.03125q1.015625 0 1.78125 -0.375q0.78125 -0.390625 1.453125 -1.234375l1.203125 1.46875q-1.5 2.109375 -4.578125 2.109375zm-0.25 -12.625q-1.4375 0 -2.125 0.984375q-0.6875 0.96875 -0.78125 3.046875l5.546875 0l0 -0.3125q-0.09375 -2.0 -0.734375 -2.859375q-0.625 -0.859375 -1.90625 -0.859375zm17.87268 6.0q0 3.34375 -1.203125 4.984375q-1.203125 1.640625 -3.40625 1.640625q-2.109375 0 -3.265625 -1.609375l0 6.765625l-2.28125 0l0 -19.5l2.078125 0l0.125 1.5625q1.15625 -1.828125 3.3125 -1.828125q2.3125 0 3.453125 1.625q1.15625 1.609375 1.1875 4.8125l0 1.546875zm-2.28125 -1.3125q0 -2.375 -0.734375 -3.5q-0.734375 -1.125 -2.34375 -1.125q-1.65625 0 -2.515625 1.65625l0 7.328125q0.859375 1.609375 2.546875 1.609375q1.5625 0 2.296875 -1.125q0.734375 -1.125 0.75 -3.453125l0 -1.390625z" fill-rule="nonzero"/></g><g filter="url(#shadowFilter-g3973a57c63_0_68.15)"><use xlink:href="#g3973a57c63_0_68.15" transform="matrix(1.0 0.0 0.0 1.0 0.0 2.0)"/></g><defs><filter id="shadowFilter-g3973a57c63_0_68.15" filterUnits="userSpaceOnUse"><feGaussianBlur in="SourceAlpha" stdDeviation="2.0" result="blur"/><feComponentTransfer in="blur" color-interpolation-filters="sRGB"><feFuncR type="linear" slope="0" intercept="0.6"/><feFuncG type="linear" slope="0" intercept="0.6"/><feFuncB type="linear" slope="0" intercept="0.6"/><feFuncA type="linear" slope="0.5" intercept="0"/></feComponentTransfer></filter></defs><g id="g3973a57c63_0_68.15"><path fill="#4a86e8" d="m440.33548 421.2681l0 0c0 -1.8415833 1.4929199 -3.3345032 3.3345032 -3.3345032l315.3152 0c0.8843994 0 1.732544 0.35128784 2.3579102 0.97665405c0.6253052 0.6253357 0.97662354 1.4734802 0.97662354 2.3578491l0 14.370331c0 1.8416138 -1.4929199 3.3345337 -3.3345337 3.3345337l-315.3152 0c-1.8415833 0 -3.3345032 -1.4929199 -3.3345032 -3.3345337z" fill-rule="evenodd"/></g><path fill="#000000" fill-opacity="0.0" d="m538.3827 410.81067l125.88977 0l0 38.015747l-125.88977 0z" fill-rule="evenodd"/><path fill="#ffffff" d="m568.6811 429.0963l-2.890625 0l-0.65625 2.234375l-1.109375 0l2.75 -8.53125l0.921875 0l2.75 8.53125l-1.09375 0l-0.671875 -2.234375zm-2.609375 -0.921875l2.328125 0l-1.171875 -3.875l-1.15625 3.875zm6.3671875 -3.1875l0.03125 0.6875q0.609375 -0.796875 1.546875 -0.796875q1.671875 0 1.703125 2.234375l0 4.21875l-1.03125 0l0 -4.171875q0 -0.734375 -0.25 -1.046875q-0.25 -0.3125 -0.75 -0.3125q-0.390625 0 -0.703125 0.265625q-0.296875 0.25 -0.484375 0.65625l0 4.609375l-1.03125 0l0 -6.34375l0.96875 0zm8.087891 6.34375q-0.09375 -0.203125 -0.125 -0.6875q-0.546875 0.8125 -1.40625 0.8125q-0.859375 0 -1.34375 -0.484375q-0.484375 -0.484375 -0.484375 -1.375q0 -0.96875 0.65625 -1.53125q0.65625 -0.5625 1.796875 -0.578125l0.765625 0l0 -0.671875q0 -0.578125 -0.265625 -0.8125q-0.25 -0.234375 -0.765625 -0.234375q-0.46875 0 -0.765625 0.28125q-0.28125 0.265625 -0.28125 0.703125l-1.03125 0q0 -0.484375 0.28125 -0.921875q0.28125 -0.453125 0.765625 -0.703125q0.5 -0.25 1.09375 -0.25q0.96875 0 1.46875 0.484375q0.515625 0.484375 0.53125 1.40625l0 3.203125q0 0.71875 0.1875 1.265625l0 0.09375l-1.078125 0zm-1.375 -0.828125q0.375 0 0.71875 -0.203125q0.359375 -0.21875 0.515625 -0.53125l0 -1.515625l-0.59375 0q-0.734375 0.015625 -1.171875 0.34375q-0.421875 0.3125 -0.421875 0.875q0 0.546875 0.21875 0.796875q0.21875 0.234375 0.734375 0.234375zm4.982422 0.828125l-1.03125 0l0 -9.0l1.03125 0l0 9.0zm3.3730469 -1.71875l1.140625 -4.625l1.109375 0l-2.078125 7.234375q-0.234375 0.828125 -0.671875 1.25q-0.421875 0.421875 -0.953125 0.421875q-0.21875 0 -0.546875 -0.09375l0 -0.875l0.234375 0.015625q0.453125 0 0.703125 -0.21875q0.25 -0.203125 0.40625 -0.734375l0.203125 -0.703125l-1.859375 -6.296875l1.140625 0l1.171875 4.625zm6.341797 0.09375q0 -0.328125 -0.25 -0.5625q-0.25 -0.25 -0.984375 -0.578125q-0.828125 -0.34375 -1.171875 -0.578125q-0.34375 -0.25 -0.515625 -0.5625q-0.171875 -0.3125 -0.171875 -0.75q0 -0.78125 0.5625 -1.28125q0.578125 -0.515625 1.453125 -0.515625q0.921875 0 1.484375 0.546875q0.5625 0.53125 0.5625 1.375l-1.03125 0q0 -0.4375 -0.296875 -0.734375q-0.28125 -0.296875 -0.71875 -0.296875q-0.453125 0 -0.71875 0.234375q-0.265625 0.234375 -0.265625 0.640625q0 0.3125 0.1875 0.515625q0.203125 0.1875 0.921875 0.5q1.15625 0.453125 1.5625 0.890625q0.421875 0.421875 0.421875 1.078125q0 0.828125 -0.578125 1.328125q-0.5625 0.5 -1.515625 0.5q-0.984375 0 -1.609375 -0.5625q-0.609375 -0.578125 -0.609375 -1.453125l1.046875 0q0.015625 0.53125 0.3125 0.828125q0.3125 0.296875 0.859375 0.296875q0.515625 0 0.78125 -0.234375q0.28125 -0.234375 0.28125 -0.625zm3.4980469 1.625l-1.03125 0l0 -6.34375l1.03125 0l0 6.34375zm0.078125 -8.015625q0 0.25 -0.140625 0.4375q-0.140625 0.171875 -0.4375 0.171875q-0.296875 0 -0.453125 -0.171875q-0.140625 -0.1875 -0.140625 -0.4375q0 -0.265625 0.140625 -0.453125q0.15625 -0.1875 0.4375 -0.1875q0.296875 0 0.4375 0.1875q0.15625 0.1875 0.15625 0.453125zm4.638672 6.390625q0 -0.328125 -0.25 -0.5625q-0.25 -0.25 -0.984375 -0.578125q-0.828125 -0.34375 -1.171875 -0.578125q-0.34375 -0.25 -0.515625 -0.5625q-0.171875 -0.3125 -0.171875 -0.75q0 -0.78125 0.5625 -1.28125q0.578125 -0.515625 1.453125 -0.515625q0.921875 0 1.484375 0.546875q0.5625 0.53125 0.5625 1.375l-1.03125 0q0 -0.4375 -0.296875 -0.734375q-0.28125 -0.296875 -0.71875 -0.296875q-0.453125 0 -0.71875 0.234375q-0.265625 0.234375 -0.265625 0.640625q0 0.3125 0.1875 0.515625q0.203125 0.1875 0.921875 0.5q1.15625 0.453125 1.5625 0.890625q0.421875 0.421875 0.421875 1.078125q0 0.828125 -0.578125 1.328125q-0.5625 0.5 -1.515625 0.5q-0.984375 0 -1.609375 -0.5625q-0.609375 -0.578125 -0.609375 -1.453125l1.046875 0q0.015625 0.53125 0.3125 0.828125q0.3125 0.296875 0.859375 0.296875q0.515625 0 0.78125 -0.234375q0.28125 -0.234375 0.28125 -0.625zm3.9042969 -6.90625l2.234375 6.953125l2.21875 -6.953125l1.390625 0l0 8.53125l-1.078125 0l0 -3.328125l0.109375 -3.328125l-2.234375 6.65625l-0.828125 0l-2.21875 -6.625l0.109375 3.296875l0 3.328125l-1.078125 0l0 -8.53125l1.375 0zm7.330078 5.0625q0 -1.375 0.671875 -2.171875q0.671875 -0.8125 1.765625 -0.8125q1.109375 0 1.765625 0.78125q0.671875 0.78125 0.703125 2.140625l0 0.671875q0 1.375 -0.671875 2.1875q-0.671875 0.796875 -1.78125 0.796875q-1.109375 0 -1.78125 -0.78125q-0.65625 -0.78125 -0.671875 -2.109375l0 -0.703125zm1.03125 0.609375q0 0.96875 0.375 1.53125q0.390625 0.5625 1.046875 0.5625q1.375 0 1.40625 -1.984375l0 -0.71875q0 -0.96875 -0.390625 -1.53125q-0.375 -0.5625 -1.03125 -0.5625q-0.640625 0 -1.03125 0.5625q-0.375 0.5625 -0.375 1.53125l0 0.609375zm4.9921875 -0.59375q0 -1.46875 0.546875 -2.234375q0.546875 -0.765625 1.5625 -0.765625q0.921875 0 1.421875 0.734375l0 -3.28125l1.046875 0l0 9.0l-0.953125 0l-0.0625 -0.6875q-0.5 0.8125 -1.453125 0.8125q-0.984375 0 -1.546875 -0.765625q-0.5625 -0.765625 -0.5625 -2.171875l0 -0.640625zm1.03125 0.59375q0 1.0625 0.3125 1.5625q0.328125 0.5 1.03125 0.5q0.78125 0 1.15625 -0.78125l0 -3.203125q-0.390625 -0.75 -1.140625 -0.75q-0.71875 0 -1.046875 0.5q-0.3125 0.5 -0.3125 1.53125l0 0.640625zm8.375 2.296875q-0.515625 0.6875 -1.515625 0.6875q-0.859375 0 -1.296875 -0.59375q-0.4375 -0.609375 -0.453125 -1.734375l0 -4.140625l1.03125 0l0 4.0625q0 1.484375 0.890625 1.484375q0.953125 0 1.3125 -0.84375l0 -4.703125l1.03125 0l0 6.34375l-0.984375 0l-0.015625 -0.5625zm3.6757812 0.5625l-1.03125 0l0 -9.0l1.03125 0l0 9.0zm3.9042969 0.125q-1.1875 0 -1.828125 -0.703125q-0.625 -0.71875 -0.640625 -2.078125l0 -0.765625q0 -1.421875 0.609375 -2.21875q0.625 -0.8125 1.734375 -0.8125q1.109375 0 1.65625 0.703125q0.5625 0.703125 0.578125 2.203125l0 0.6875l-3.546875 0l0 0.140625q0 1.03125 0.375 1.5q0.390625 0.453125 1.109375 0.453125q0.46875 0 0.8125 -0.171875q0.34375 -0.171875 0.65625 -0.546875l0.53125 0.65625q-0.671875 0.953125 -2.046875 0.953125zm-0.125 -5.6875q-0.640625 0 -0.953125 0.4375q-0.3125 0.4375 -0.34375 1.375l2.484375 0l0 -0.140625q-0.03125 -0.90625 -0.328125 -1.28125q-0.28125 -0.390625 -0.859375 -0.390625z" fill-rule="nonzero"/></g></svg>